<svg id="svg" version="1.1" xmlns="http://www.w3.org/2000/svg" xmlns:xlink="http://www.w3.org/1999/xlink" width="400" height="106.05187319884726" viewBox="0, 0, 400,106.05187319884726"><g id="svgg"><path id="path0" d="M212.833 82.483 C 212.833 82.545,212.666 82.608,212.462 82.624 C 212.045 82.655,211.619 83.135,211.736 83.440 C 211.788 83.577,211.634 83.623,211.246 83.587 C 210.591 83.526,210.255 83.824,210.414 84.325 C 210.523 84.670,210.432 84.714,209.625 84.711 C 209.465 84.711,209.325 84.794,209.316 84.897 C 209.306 84.999,209.287 85.233,209.274 85.417 C 209.256 85.662,209.112 85.763,208.729 85.801 C 208.161 85.856,207.905 86.649,208.115 87.702 C 208.203 88.142,208.177 88.167,207.602 88.167 L 206.996 88.167 207.040 94.958 L 207.083 101.750 207.616 101.802 C 207.964 101.835,208.121 101.926,208.068 102.064 C 207.899 102.503,208.302 103.141,208.783 103.196 C 209.175 103.241,209.250 103.328,209.250 103.735 C 209.250 104.148,209.325 104.231,209.747 104.288 C 210.277 104.360,210.543 104.622,210.422 104.953 C 210.321 105.230,210.632 105.428,211.250 105.479 C 211.387 105.491,211.500 105.612,211.500 105.750 C 211.500 105.968,212.380 106.000,218.417 106.000 C 224.454 106.000,225.333 105.968,225.333 105.750 C 225.333 105.539,225.626 105.450,226.106 105.514 C 226.285 105.538,226.495 105.105,226.497 104.708 C 226.500 104.361,226.896 104.212,227.542 104.314 C 227.610 104.324,227.667 104.076,227.667 103.761 C 227.667 103.236,227.712 103.183,228.208 103.136 C 228.703 103.088,228.755 103.029,228.802 102.458 C 228.841 101.984,228.927 101.833,229.156 101.833 C 229.897 101.833,229.917 101.648,229.917 94.766 L 229.917 88.250 229.382 88.198 L 228.848 88.147 228.799 87.032 L 228.750 85.917 228.208 85.864 C 227.737 85.819,227.667 85.751,227.667 85.341 C 227.667 84.861,227.422 84.667,226.820 84.667 C 226.576 84.667,226.500 84.548,226.500 84.167 C 226.500 83.664,226.406 83.604,225.709 83.660 C 225.443 83.682,225.286 83.563,225.168 83.254 C 224.855 82.429,224.398 82.370,218.375 82.370 C 215.327 82.369,212.833 82.420,212.833 82.483 M108.544 83.628 C 108.097 83.677,107.980 83.779,107.865 84.219 C 107.749 84.663,107.646 84.750,107.239 84.750 C 106.971 84.750,106.742 84.844,106.730 84.958 C 106.718 85.073,106.699 85.354,106.688 85.583 C 106.671 85.912,106.578 86.000,106.246 86.000 C 105.752 86.000,105.500 86.507,105.500 87.500 C 105.500 88.106,105.467 88.149,104.958 88.198 L 104.417 88.250 104.417 94.500 L 104.417 100.750 104.951 100.802 C 105.482 100.853,105.485 100.859,105.534 101.879 C 105.582 102.879,105.597 102.909,106.125 103.060 C 106.570 103.187,106.667 103.298,106.667 103.680 C 106.667 104.153,107.138 104.474,107.503 104.248 C 107.598 104.190,107.755 104.371,107.853 104.650 C 108.127 105.437,108.581 105.485,115.833 105.496 C 123.641 105.509,122.861 105.791,122.797 102.977 L 122.750 100.917 118.724 100.872 L 114.697 100.827 114.532 100.355 C 114.363 99.868,113.863 99.667,112.823 99.667 C 112.416 99.667,112.348 99.595,112.302 99.125 C 112.256 98.649,112.185 98.577,111.708 98.531 C 111.212 98.483,111.167 98.430,111.167 97.906 L 111.167 97.333 116.905 97.333 C 122.226 97.333,122.651 97.312,122.732 97.042 C 122.846 96.660,122.847 92.336,122.733 91.958 C 122.651 91.688,122.226 91.667,116.905 91.667 L 111.167 91.667 111.167 91.083 C 111.167 90.646,111.240 90.495,111.458 90.481 C 111.619 90.470,111.862 90.451,112.000 90.439 C 112.152 90.426,112.270 90.212,112.301 89.897 C 112.349 89.398,112.388 89.373,113.290 89.267 C 114.326 89.145,114.667 88.950,114.667 88.480 C 114.667 88.182,114.864 88.167,118.649 88.167 C 122.126 88.167,122.644 88.133,122.732 87.903 C 122.951 87.333,122.842 83.881,122.599 83.680 C 122.382 83.499,110.133 83.454,108.544 83.628 M126.378 83.629 C 126.218 83.735,126.181 86.168,126.211 94.591 L 126.250 105.417 128.893 105.446 C 130.346 105.462,131.640 105.436,131.768 105.387 C 131.960 105.313,132.000 104.303,132.000 99.516 L 132.000 93.734 132.583 93.802 C 133.122 93.865,133.167 93.913,133.167 94.435 C 133.167 94.968,133.199 95.000,133.742 95.000 L 134.318 95.000 134.367 96.125 L 134.417 97.250 134.958 97.302 C 135.427 97.347,135.500 97.417,135.500 97.819 C 135.500 98.613,135.835 99.327,136.258 99.433 C 136.565 99.511,136.659 99.662,136.699 100.141 C 136.745 100.694,136.800 100.755,137.292 100.802 C 137.761 100.847,137.833 100.917,137.833 101.319 C 137.833 102.333,138.206 102.909,138.833 102.867 C 138.879 102.864,138.937 103.133,138.961 103.464 C 139.009 104.118,139.250 104.378,139.708 104.268 C 139.923 104.216,140.000 104.301,140.000 104.587 C 140.000 105.425,140.224 105.475,144.057 105.493 C 146.013 105.502,147.738 105.462,147.890 105.404 C 148.144 105.306,148.167 104.404,148.167 94.500 L 148.167 83.703 147.723 83.591 C 147.478 83.530,146.170 83.496,144.814 83.516 L 142.350 83.552 142.338 89.308 C 142.331 92.473,142.302 95.087,142.273 95.116 C 141.909 95.480,141.209 94.894,141.070 94.110 C 140.945 93.411,140.831 93.210,140.458 93.033 C 140.089 92.857,140.000 92.703,140.000 92.241 C 140.000 91.696,139.970 91.667,139.417 91.667 C 138.873 91.667,138.832 91.630,138.817 91.125 C 138.790 90.238,138.593 89.765,138.159 89.543 C 137.934 89.428,137.773 89.245,137.802 89.136 C 137.942 88.602,137.656 88.167,137.163 88.167 C 136.806 88.167,136.663 88.085,136.654 87.875 C 136.617 87.023,136.251 86.216,135.843 86.086 C 135.648 86.024,135.500 85.834,135.500 85.644 C 135.500 85.015,135.174 84.629,134.736 84.739 C 134.380 84.828,134.333 84.784,134.333 84.357 C 134.333 84.091,134.240 83.801,134.125 83.711 C 133.870 83.512,126.669 83.435,126.378 83.629 M149.333 85.156 C 149.333 87.043,149.484 87.591,150.080 87.862 C 150.446 88.029,150.500 88.159,150.500 88.871 C 150.500 89.892,150.726 90.333,151.248 90.333 C 151.630 90.333,151.654 90.393,151.701 91.453 C 151.750 92.563,151.755 92.573,152.303 92.730 C 152.772 92.864,152.841 92.947,152.759 93.274 C 152.527 94.199,152.832 95.000,153.418 95.000 L 153.960 95.000 153.917 95.981 C 153.865 97.143,153.932 97.285,154.565 97.360 L 155.046 97.417 155.079 98.783 C 155.113 100.213,155.300 100.667,155.854 100.667 C 156.026 100.667,156.176 100.760,156.187 100.875 C 156.198 100.990,156.224 101.346,156.244 101.667 C 156.264 101.987,156.292 102.419,156.307 102.625 C 156.328 102.925,156.434 103.000,156.833 103.000 C 157.371 103.000,157.358 102.964,157.400 104.564 C 157.423 105.464,157.687 105.526,161.232 105.467 L 164.222 105.417 164.289 104.920 C 164.370 104.310,164.355 104.324,164.939 104.281 C 165.355 104.249,165.424 104.169,165.470 103.664 C 165.506 103.278,165.673 102.964,165.968 102.726 C 166.372 102.401,166.418 102.244,166.474 101.017 C 166.538 99.605,166.619 99.501,167.542 99.647 C 167.610 99.658,167.667 99.142,167.667 98.500 L 167.667 97.333 168.250 97.333 L 168.833 97.333 168.833 96.177 L 168.833 95.021 169.375 94.969 C 169.915 94.917,169.917 94.914,170.000 93.833 C 170.080 92.800,170.104 92.748,170.541 92.697 C 170.969 92.648,171.249 92.213,171.157 91.739 C 171.015 91.001,171.195 90.314,171.569 90.172 C 171.910 90.042,172.125 89.719,172.263 89.125 C 172.279 89.056,172.301 88.550,172.313 88.000 C 172.331 87.133,172.376 87.000,172.653 87.000 C 173.448 87.000,173.500 86.887,173.500 85.161 L 173.500 83.524 170.163 83.534 C 168.327 83.540,166.792 83.599,166.751 83.666 C 166.709 83.733,166.658 84.017,166.636 84.299 C 166.615 84.580,166.542 84.776,166.473 84.733 C 165.796 84.315,165.500 84.859,165.500 86.518 L 165.500 88.167 165.042 88.186 C 164.790 88.197,164.527 88.197,164.458 88.186 C 164.390 88.176,164.333 88.734,164.333 89.428 C 164.333 90.623,164.315 90.683,163.992 90.581 C 163.389 90.389,163.225 90.734,163.189 92.272 C 163.150 93.949,163.131 94.000,162.518 94.000 C 162.065 94.000,162.054 94.023,162.018 95.042 C 161.997 95.615,161.905 96.158,161.812 96.250 C 161.699 96.361,161.653 96.361,161.674 96.250 C 161.764 95.777,161.625 95.476,161.250 95.333 C 160.876 95.191,160.833 95.082,160.833 94.268 C 160.833 93.059,160.727 92.833,160.156 92.833 C 159.687 92.833,159.681 92.822,159.633 91.708 L 159.583 90.583 159.042 90.531 L 158.500 90.479 158.483 89.281 C 158.461 87.702,158.332 87.284,157.827 87.166 C 157.455 87.079,157.409 86.969,157.333 85.993 C 157.253 84.952,157.232 84.911,156.716 84.759 C 156.286 84.633,156.173 84.504,156.133 84.093 L 156.083 83.583 152.708 83.542 L 149.333 83.501 149.333 85.156 M174.748 83.641 C 174.482 83.907,174.677 105.301,174.945 105.405 C 175.099 105.463,176.374 105.502,177.779 105.491 L 180.333 105.470 180.333 94.474 L 180.333 83.477 177.581 83.519 C 176.067 83.542,174.792 83.597,174.748 83.641 M185.116 83.606 C 184.929 83.793,184.980 104.818,185.168 105.170 C 185.382 105.570,190.248 105.686,190.633 105.300 C 190.775 105.158,190.833 104.144,190.833 101.800 L 190.833 98.500 193.723 98.500 L 196.613 98.500 196.801 98.912 C 196.904 99.139,197.167 99.369,197.386 99.424 C 197.690 99.500,197.766 99.612,197.710 99.902 C 197.626 100.345,198.046 100.833,198.512 100.833 C 198.804 100.833,198.835 100.968,198.849 102.292 C 198.886 105.808,198.524 105.473,202.312 105.492 C 206.190 105.512,205.849 105.845,205.825 102.066 C 205.805 98.897,205.722 98.500,205.077 98.500 C 204.687 98.500,204.667 98.450,204.667 97.520 C 204.667 96.448,204.457 96.122,203.866 96.276 C 203.651 96.333,203.500 96.296,203.500 96.186 C 203.500 96.084,203.614 96.000,203.752 96.000 C 204.112 96.000,204.665 95.015,204.666 94.375 C 204.667 93.889,204.716 93.833,205.149 93.833 C 205.808 93.833,205.819 93.774,205.818 90.152 C 205.817 86.225,205.786 86.041,205.104 85.862 C 204.704 85.757,204.595 85.645,204.633 85.378 C 204.687 84.999,204.427 84.766,203.939 84.756 C 203.734 84.752,203.564 84.553,203.439 84.167 L 203.250 83.583 194.232 83.545 C 189.273 83.524,185.171 83.552,185.116 83.606 M232.374 94.454 L 232.417 105.417 235.208 105.462 L 238.000 105.508 238.013 99.462 C 238.020 96.137,238.064 93.510,238.110 93.625 C 238.157 93.740,238.413 93.833,238.681 93.833 C 238.948 93.833,239.172 93.890,239.178 93.958 C 239.184 94.027,239.219 94.417,239.256 94.824 C 239.348 95.844,239.409 95.954,239.955 96.073 C 240.362 96.163,240.431 96.257,240.425 96.714 C 240.417 97.199,240.468 97.255,240.958 97.302 L 241.500 97.354 241.500 98.311 C 241.500 99.340,241.686 99.667,242.273 99.667 C 242.572 99.667,242.656 99.774,242.698 100.208 C 242.744 100.685,242.815 100.756,243.292 100.802 L 243.833 100.854 243.833 101.920 L 243.833 102.985 244.417 103.094 C 244.949 103.194,245.000 103.254,245.000 103.778 C 245.000 104.094,245.062 104.315,245.137 104.268 C 245.213 104.221,245.269 104.346,245.262 104.544 C 245.238 105.262,245.947 105.412,249.625 105.468 L 253.000 105.519 253.000 94.513 L 253.000 83.508 250.208 83.524 L 247.417 83.541 247.333 89.396 C 247.264 94.298,247.216 95.173,247.040 94.776 C 246.924 94.515,246.680 94.262,246.498 94.214 C 246.190 94.134,246.090 93.958,246.153 93.608 C 246.232 93.167,245.945 92.833,245.489 92.833 C 245.084 92.833,244.996 92.762,244.979 92.417 C 244.968 92.188,244.940 91.925,244.917 91.833 C 244.894 91.742,244.866 91.440,244.854 91.162 C 244.837 90.745,244.749 90.642,244.342 90.560 C 243.940 90.480,243.842 90.368,243.801 89.939 C 243.757 89.484,243.680 89.410,243.208 89.364 L 242.667 89.312 242.667 88.356 C 242.667 87.327,242.481 87.000,241.894 87.000 C 241.595 87.000,241.511 86.892,241.469 86.458 C 241.423 85.982,241.351 85.910,240.875 85.864 L 240.333 85.812 240.333 84.829 C 240.333 83.509,240.388 83.525,236.031 83.507 L 232.331 83.491 232.374 94.454 M257.667 94.414 L 257.667 105.327 258.042 105.420 C 258.248 105.471,259.504 105.491,260.833 105.465 L 263.250 105.417 263.333 99.000 C 263.379 95.471,263.471 92.829,263.538 93.128 C 263.635 93.561,263.763 93.694,264.160 93.774 C 264.436 93.829,264.618 93.944,264.565 94.030 C 264.318 94.430,264.673 95.000,265.170 95.000 C 265.446 95.000,265.675 95.092,265.685 95.208 C 265.695 95.323,265.721 95.604,265.743 95.833 C 265.764 96.063,265.794 96.458,265.808 96.712 C 265.828 97.085,265.931 97.195,266.333 97.275 C 266.625 97.333,266.844 97.488,266.859 97.646 C 266.873 97.795,266.891 98.029,266.900 98.167 C 266.911 98.322,267.121 98.436,267.458 98.469 C 267.986 98.520,268.165 98.932,268.009 99.739 C 267.919 100.206,268.203 100.648,268.657 100.748 C 269.058 100.836,269.157 100.952,269.199 101.386 C 269.243 101.848,269.319 101.923,269.784 101.968 C 270.315 102.020,270.318 102.025,270.367 103.046 C 270.415 104.046,270.431 104.076,270.958 104.227 C 271.401 104.353,271.500 104.466,271.500 104.840 C 271.500 105.486,271.593 105.500,275.764 105.500 L 279.500 105.500 279.500 94.509 L 279.500 83.517 276.667 83.517 L 273.833 83.517 273.833 89.400 L 273.833 95.284 273.268 95.107 C 272.734 94.939,272.696 94.876,272.560 93.923 C 272.428 92.997,272.381 92.913,271.968 92.865 C 271.599 92.822,271.510 92.719,271.468 92.282 C 271.423 91.817,271.349 91.743,270.875 91.698 C 270.354 91.648,270.333 91.617,270.333 90.917 C 270.333 89.794,270.082 89.279,269.580 89.375 C 269.198 89.448,269.167 89.406,269.167 88.810 C 269.167 88.186,269.149 88.167,268.583 88.167 L 268.000 88.167 268.000 87.262 C 268.000 86.297,267.729 85.833,267.165 85.833 C 266.936 85.833,266.841 85.691,266.802 85.292 C 266.770 84.954,266.656 84.744,266.500 84.734 C 265.730 84.684,265.686 84.653,265.636 84.125 L 265.583 83.583 261.625 83.542 L 257.667 83.502 257.667 94.414 M286.593 83.629 C 286.542 83.680,286.500 83.935,286.500 84.194 C 286.500 84.675,286.190 84.787,285.114 84.693 C 284.612 84.649,284.167 84.986,284.167 85.409 C 284.167 85.712,284.052 85.832,283.684 85.913 C 283.146 86.031,283.006 86.349,283.002 87.458 C 283.000 88.062,282.949 88.167,282.657 88.167 C 282.468 88.167,282.359 88.241,282.415 88.331 C 282.472 88.422,282.412 88.456,282.281 88.406 C 281.891 88.256,281.833 89.067,281.836 94.646 C 281.838 100.562,281.843 100.606,282.509 100.752 C 282.962 100.851,282.987 100.906,283.034 101.877 C 283.082 102.873,283.096 102.900,283.625 103.036 C 284.079 103.154,284.167 103.254,284.167 103.658 C 284.167 104.117,284.686 104.430,285.268 104.322 C 286.075 104.171,286.480 104.349,286.531 104.875 L 286.583 105.417 293.811 105.463 C 299.159 105.497,301.099 105.458,301.274 105.314 C 301.459 105.160,301.500 104.668,301.463 103.017 L 301.417 100.917 296.802 100.872 L 292.187 100.828 292.135 100.289 L 292.083 99.750 290.958 99.701 L 289.833 99.651 289.833 99.076 C 289.833 98.547,289.792 98.500,289.333 98.500 C 288.873 98.500,288.833 98.454,288.833 97.917 L 288.833 97.333 295.072 97.333 C 300.869 97.333,301.317 97.313,301.398 97.042 C 301.513 96.660,301.514 92.336,301.399 91.958 C 301.317 91.687,300.869 91.667,295.072 91.667 L 288.833 91.667 288.833 91.083 C 288.833 90.546,288.873 90.500,289.333 90.500 C 289.794 90.500,289.833 90.454,289.833 89.917 C 289.833 89.344,289.846 89.333,290.542 89.317 C 292.105 89.281,292.079 89.291,292.136 88.708 L 292.188 88.167 296.743 88.167 C 300.742 88.167,301.310 88.135,301.399 87.903 C 301.618 87.332,301.509 83.881,301.265 83.679 C 301.022 83.478,286.793 83.429,286.593 83.629 M305.083 83.590 C 304.974 83.640,304.928 87.421,304.950 94.542 L 304.984 105.417 307.825 105.448 L 310.667 105.479 310.667 100.773 L 310.667 96.067 311.244 96.134 L 311.822 96.202 311.869 97.809 L 311.917 99.417 312.458 99.576 L 313.000 99.736 313.000 101.104 C 313.000 102.795,313.073 103.000,313.677 103.000 C 314.151 103.000,314.152 103.003,314.201 104.208 L 314.250 105.417 318.048 105.417 C 322.377 105.417,322.160 105.494,322.164 103.958 C 322.167 103.052,322.189 103.000,322.577 103.000 C 323.163 103.000,323.333 102.551,323.333 101.011 C 323.333 99.794,323.364 99.667,323.655 99.667 C 324.319 99.667,324.500 99.235,324.500 97.655 C 324.500 96.188,324.506 96.167,324.907 96.167 C 325.131 96.167,325.374 96.073,325.448 95.958 C 325.523 95.844,325.621 97.925,325.667 100.583 L 325.750 105.417 328.500 105.417 L 331.250 105.417 331.250 94.500 L 331.250 83.583 327.333 83.583 L 323.417 83.583 323.365 84.209 C 323.319 84.766,323.272 84.824,322.936 84.740 C 322.478 84.625,322.136 84.983,322.184 85.527 C 322.270 86.494,322.162 87.167,321.921 87.167 C 321.477 87.167,321.114 87.976,321.074 89.054 C 321.053 89.620,321.028 90.168,321.018 90.271 C 321.008 90.374,320.775 90.503,320.500 90.558 C 320.097 90.639,319.995 90.748,319.976 91.121 C 319.963 91.375,319.933 92.033,319.909 92.583 C 319.886 93.133,319.859 93.677,319.850 93.792 C 319.841 93.907,319.617 94.000,319.349 94.000 C 318.858 94.000,318.425 95.308,318.746 95.826 C 318.972 96.192,318.645 97.500,318.328 97.500 C 317.554 97.500,317.500 97.380,317.500 95.649 L 317.500 94.000 317.000 94.000 L 316.500 94.000 316.480 92.708 C 316.469 91.998,316.472 91.353,316.486 91.274 C 316.565 90.834,316.279 90.500,315.822 90.500 L 315.333 90.500 315.322 89.208 C 315.303 87.097,315.090 86.271,314.519 86.089 C 314.280 86.013,314.171 85.810,314.135 85.367 C 314.088 84.804,314.040 84.750,313.583 84.752 C 313.138 84.753,313.074 84.689,313.000 84.168 L 312.917 83.583 309.083 83.549 C 306.975 83.530,305.175 83.548,305.083 83.590 M338.542 83.617 C 338.427 83.660,338.333 83.913,338.333 84.181 C 338.333 84.451,338.241 84.673,338.125 84.680 C 336.088 84.814,336.065 84.836,336.011 86.625 C 336.003 86.899,335.899 87.001,335.625 87.003 C 335.183 87.006,334.923 87.169,334.900 87.458 C 334.891 87.573,334.872 87.778,334.858 87.913 C 334.845 88.049,334.651 88.206,334.429 88.262 C 333.798 88.420,333.776 88.601,333.741 94.092 C 333.702 100.253,333.729 100.514,334.426 100.694 C 334.835 100.800,334.934 100.915,334.939 101.288 C 334.949 102.104,335.197 102.686,335.598 102.839 C 335.842 102.932,336.039 103.192,336.127 103.535 C 336.261 104.056,336.318 104.091,337.300 104.238 C 338.275 104.383,338.333 104.417,338.333 104.845 C 338.333 105.496,338.306 105.494,346.175 105.453 L 353.250 105.417 353.296 103.125 L 353.343 100.833 348.755 100.833 C 344.343 100.833,344.167 100.821,344.167 100.514 C 344.167 99.772,344.009 99.667,342.899 99.667 L 341.833 99.667 341.814 99.125 C 341.804 98.827,341.808 98.455,341.824 98.298 C 341.839 98.141,341.771 97.861,341.671 97.675 C 341.492 97.339,341.523 97.337,347.370 97.294 L 353.250 97.250 353.250 94.500 L 353.250 91.750 347.282 91.706 C 341.877 91.667,341.338 91.638,341.574 91.403 C 341.716 91.260,341.833 90.959,341.833 90.734 C 341.833 90.457,341.961 90.277,342.227 90.175 C 342.444 90.093,342.662 89.870,342.712 89.679 C 342.776 89.434,342.937 89.333,343.264 89.333 C 344.045 89.333,344.836 88.962,344.940 88.548 L 345.036 88.167 349.185 88.167 L 353.333 88.167 353.333 85.836 L 353.333 83.505 346.042 83.523 C 342.031 83.532,338.656 83.575,338.542 83.617 M356.833 94.490 L 356.833 105.500 359.667 105.500 L 362.500 105.500 362.518 99.042 C 362.531 94.121,362.580 92.695,362.721 93.053 C 362.840 93.356,363.063 93.554,363.349 93.611 C 363.737 93.689,363.789 93.776,363.771 94.308 C 363.751 94.873,363.787 94.920,364.271 94.967 C 364.755 95.014,364.798 95.071,364.876 95.766 C 364.961 96.521,365.372 97.167,365.766 97.167 C 365.893 97.167,366.001 97.421,366.032 97.792 C 366.079 98.362,366.130 98.421,366.625 98.469 C 367.098 98.515,367.167 98.582,367.167 99.000 C 367.167 99.732,367.450 100.318,367.905 100.525 C 368.213 100.665,368.329 100.863,368.366 101.314 C 368.412 101.860,368.468 101.922,368.958 101.969 C 369.462 102.017,369.500 102.065,369.502 102.636 C 369.506 103.664,369.666 104.008,370.188 104.113 C 370.583 104.192,370.667 104.293,370.667 104.692 C 370.667 105.408,371.030 105.474,375.063 105.493 L 378.667 105.510 378.667 94.521 L 378.667 83.531 375.910 83.522 L 373.154 83.513 372.993 83.934 C 372.903 84.172,372.833 86.715,372.833 89.779 C 372.833 94.656,372.807 95.192,372.570 95.101 C 372.425 95.046,372.200 95.000,372.070 95.000 C 371.933 95.000,371.833 94.835,371.833 94.609 C 371.833 94.055,371.341 93.138,370.996 93.047 C 370.807 92.998,370.668 92.741,370.600 92.319 C 370.506 91.729,370.448 91.667,369.998 91.667 C 369.640 91.667,369.496 91.585,369.486 91.375 C 369.451 90.637,369.371 90.333,369.108 89.932 C 368.953 89.694,368.719 89.500,368.590 89.500 C 368.437 89.500,368.335 89.279,368.302 88.875 C 368.255 88.304,368.203 88.245,367.708 88.198 C 367.230 88.152,367.167 88.088,367.167 87.648 C 367.167 86.992,366.754 86.217,366.335 86.084 C 366.104 86.011,366.000 85.832,366.000 85.509 C 366.000 84.940,365.688 84.649,365.211 84.774 C 364.899 84.855,364.849 84.787,364.803 84.225 L 364.750 83.583 360.792 83.531 L 356.833 83.479 356.833 94.490 M381.000 85.839 L 381.000 88.167 384.509 88.167 L 388.017 88.167 387.990 96.792 L 387.963 105.417 390.523 105.451 C 391.931 105.470,393.215 105.446,393.375 105.398 C 393.648 105.317,393.667 104.758,393.667 96.739 L 393.667 88.167 396.833 88.167 L 400.000 88.167 400.000 85.831 L 400.000 83.495 390.500 83.503 L 381.000 83.510 381.000 85.839 M220.865 88.637 C 220.905 88.985,221.026 89.100,221.417 89.167 C 221.837 89.238,221.925 89.337,221.969 89.792 C 222.005 90.167,222.108 90.334,222.302 90.336 C 223.024 90.342,223.048 90.463,223.072 94.275 C 223.100 98.496,223.109 98.430,222.507 98.639 C 222.047 98.800,221.638 100.216,221.920 100.672 C 221.980 100.769,221.630 100.833,221.043 100.833 C 219.989 100.833,219.667 101.017,219.667 101.617 C 219.667 101.979,219.605 102.000,218.524 102.000 L 217.382 102.000 217.227 101.458 C 217.076 100.930,217.047 100.915,216.036 100.867 L 215.000 100.817 215.000 99.981 C 215.000 98.936,214.777 98.500,214.244 98.500 L 213.833 98.500 213.833 94.417 L 213.833 90.333 214.326 90.333 C 214.757 90.333,214.832 90.260,214.928 89.750 C 215.001 89.357,215.129 89.167,215.319 89.167 C 215.683 89.167,216.000 88.845,216.000 88.474 C 216.000 87.808,220.788 87.968,220.865 88.637 M197.750 88.750 C 197.750 89.192,197.813 89.256,198.292 89.302 L 198.833 89.354 198.833 90.511 L 198.833 91.667 198.232 91.667 C 197.743 91.667,197.651 91.718,197.736 91.940 C 198.062 92.790,197.893 92.833,194.239 92.833 L 190.833 92.833 190.833 90.497 L 190.833 88.160 194.292 88.205 L 197.750 88.250 197.750 88.750 " stroke="none" fill="#646464" fill-rule="evenodd"></path><path id="path1" d="M31.833 0.226 C 31.833 0.449,30.442 0.663,28.969 0.665 C 28.398 0.667,28.351 0.705,28.302 1.208 L 28.250 1.750 27.083 1.760 C 24.746 1.781,24.786 1.770,24.869 2.333 C 24.911 2.620,24.866 2.841,24.763 2.850 C 24.664 2.860,24.207 2.882,23.747 2.900 C 22.735 2.940,22.500 3.067,22.500 3.575 C 22.500 3.971,21.844 4.296,21.488 4.076 C 21.398 4.021,21.346 4.048,21.371 4.138 C 21.426 4.331,21.266 4.361,20.907 4.223 C 20.763 4.168,20.556 4.214,20.447 4.325 C 20.294 4.482,20.313 4.515,20.531 4.472 C 20.685 4.442,20.805 4.492,20.797 4.583 C 20.789 4.675,20.633 4.725,20.451 4.694 C 20.200 4.651,20.140 4.712,20.200 4.944 C 20.268 5.204,20.178 5.250,19.599 5.250 C 18.995 5.250,18.922 5.292,18.966 5.610 C 18.994 5.808,18.944 6.015,18.856 6.069 C 18.639 6.203,18.167 6.007,18.167 5.782 C 18.167 5.660,18.233 5.666,18.367 5.800 C 18.477 5.910,18.627 6.000,18.700 6.000 C 18.895 6.000,18.863 5.538,18.659 5.412 C 18.416 5.262,18.000 5.645,18.000 6.020 C 18.000 6.229,17.881 6.333,17.643 6.333 C 17.447 6.333,17.185 6.465,17.060 6.625 C 16.848 6.896,16.839 6.893,16.932 6.583 C 17.013 6.312,16.998 6.296,16.852 6.500 C 16.753 6.638,16.671 6.919,16.669 7.125 C 16.667 7.498,16.532 7.568,15.940 7.506 C 15.755 7.486,15.675 7.546,15.742 7.653 C 15.803 7.752,15.774 7.833,15.677 7.833 C 15.579 7.833,15.500 8.021,15.500 8.250 C 15.500 8.585,15.417 8.667,15.078 8.667 C 14.344 8.667,13.532 9.102,13.472 9.528 C 13.426 9.847,13.328 9.910,12.917 9.878 C 12.496 9.845,12.470 9.863,12.750 9.991 C 12.933 10.075,12.985 10.149,12.865 10.155 C 12.745 10.161,12.693 10.242,12.750 10.333 C 12.807 10.426,12.682 10.501,12.468 10.503 C 12.170 10.505,12.138 10.540,12.325 10.658 C 12.599 10.831,11.822 11.104,11.286 11.022 C 11.044 10.986,10.995 11.082,11.026 11.536 C 11.066 12.131,10.921 12.500,10.647 12.500 C 10.555 12.500,10.527 12.425,10.583 12.333 C 10.640 12.242,10.537 12.167,10.354 12.167 C 10.054 12.167,9.783 12.581,9.847 12.941 C 9.915 13.319,9.804 13.500,9.506 13.500 C 9.099 13.500,8.859 13.932,8.726 14.906 C 8.669 15.320,8.553 15.616,8.468 15.564 C 8.113 15.344,7.583 15.656,7.558 16.098 C 7.530 16.584,7.242 16.852,6.890 16.717 C 6.760 16.667,6.667 16.743,6.667 16.899 C 6.667 17.046,6.604 17.167,6.528 17.167 C 6.395 17.167,6.339 17.402,6.320 18.036 C 6.313 18.276,6.260 18.290,5.993 18.124 C 5.743 17.968,5.630 17.972,5.462 18.143 C 5.290 18.320,5.298 18.351,5.505 18.306 C 5.645 18.275,5.758 18.324,5.755 18.413 C 5.752 18.503,5.638 18.578,5.500 18.580 C 5.323 18.582,5.226 18.826,5.167 19.417 C 5.107 20.015,5.017 20.236,4.850 20.200 C 4.406 20.105,4.109 20.314,4.323 20.570 C 4.442 20.714,4.455 20.842,4.356 20.903 C 4.267 20.957,4.157 20.908,4.111 20.793 C 4.064 20.678,4.020 20.757,4.013 20.968 C 4.005 21.208,4.069 21.310,4.183 21.240 C 4.317 21.157,4.317 21.220,4.183 21.469 C 4.082 21.657,4.000 21.966,4.000 22.156 C 4.000 22.426,3.894 22.500,3.508 22.500 C 3.002 22.500,2.804 22.933,2.860 23.917 C 2.898 24.582,2.823 24.753,2.415 24.943 C 2.187 25.049,2.042 25.068,2.093 24.984 C 2.144 24.901,2.114 24.833,2.024 24.833 C 1.803 24.833,1.667 25.869,1.721 27.142 C 1.765 28.182,1.377 28.753,0.849 28.426 C 0.720 28.346,0.602 29.489,0.590 30.932 C 0.584 31.656,0.541 31.769,0.292 31.704 C 0.016 31.632,-0.000 32.203,-0.000 41.981 C -0.000 51.729,0.017 52.333,0.292 52.333 C 0.526 52.333,0.586 52.488,0.599 53.125 C 0.631 54.758,0.714 55.500,0.864 55.500 C 0.950 55.500,0.969 55.581,0.908 55.681 C 0.835 55.799,0.961 55.843,1.273 55.806 L 1.750 55.750 1.701 57.062 C 1.661 58.111,1.708 58.436,1.935 58.687 C 2.117 58.888,2.146 59.000,2.016 59.000 C 1.905 59.000,1.863 59.080,1.924 59.178 C 1.984 59.276,2.136 59.317,2.262 59.268 C 2.680 59.108,2.957 59.597,2.882 60.363 C 2.834 60.866,2.895 61.184,3.085 61.417 C 3.235 61.600,3.311 61.656,3.253 61.542 C 3.194 61.427,3.226 61.333,3.323 61.333 C 3.421 61.333,3.500 61.406,3.500 61.495 C 3.500 61.584,3.612 61.613,3.750 61.560 C 4.011 61.460,4.063 61.707,4.006 62.775 C 3.990 63.063,4.059 63.350,4.158 63.411 C 4.257 63.473,4.296 63.593,4.243 63.678 C 4.190 63.764,4.341 63.833,4.578 63.833 C 5.064 63.833,5.361 64.369,5.237 65.024 C 5.196 65.240,5.208 65.322,5.262 65.207 C 5.317 65.092,5.434 65.043,5.522 65.097 C 5.621 65.158,5.609 65.286,5.489 65.429 C 5.202 65.776,5.434 66.223,5.846 66.115 C 6.206 66.021,6.366 66.245,6.398 66.890 C 6.413 67.170,6.537 67.262,6.958 67.302 C 7.477 67.352,7.613 67.602,7.528 68.350 C 7.522 68.405,7.746 68.456,8.025 68.464 C 8.647 68.482,8.610 68.440,8.721 69.250 C 8.859 70.260,9.000 70.508,9.493 70.607 C 9.869 70.682,9.942 70.782,9.931 71.203 C 9.914 71.790,10.411 72.242,10.651 71.857 C 10.844 71.547,11.043 71.882,11.071 72.566 C 11.084 72.889,11.184 73.092,11.338 73.106 C 11.473 73.118,11.712 73.137,11.869 73.147 C 12.026 73.158,12.240 73.326,12.344 73.520 C 12.491 73.795,12.488 73.845,12.328 73.747 C 12.195 73.664,12.153 73.701,12.208 73.852 C 12.254 73.979,12.376 74.065,12.479 74.042 C 12.582 74.019,12.667 74.078,12.667 74.174 C 12.667 74.270,12.760 74.336,12.875 74.321 C 13.321 74.263,13.467 74.347,13.560 74.714 C 13.646 75.060,14.538 75.557,14.943 75.485 C 15.456 75.395,15.683 75.518,15.583 75.834 C 15.483 76.150,15.926 76.820,16.155 76.700 C 16.365 76.589,16.860 76.823,16.759 76.985 C 16.594 77.252,16.985 77.854,17.302 77.823 C 17.881 77.765,18.411 77.843,18.250 77.961 C 17.906 78.214,18.068 78.749,18.500 78.784 C 19.782 78.888,20.438 79.098,20.572 79.447 C 20.657 79.669,20.632 79.679,20.420 79.503 C 20.281 79.387,20.168 79.358,20.169 79.438 C 20.175 79.795,20.484 79.928,21.404 79.970 C 22.593 80.025,22.643 80.050,22.545 80.560 C 22.503 80.780,22.562 81.019,22.677 81.090 C 22.811 81.173,22.843 81.150,22.766 81.026 C 22.701 80.920,22.726 80.833,22.823 80.833 C 22.921 80.833,23.000 80.896,23.000 80.974 C 23.000 81.051,23.389 81.128,23.865 81.144 C 24.868 81.180,24.871 81.182,24.926 81.790 C 24.984 82.439,24.987 82.444,25.167 82.167 C 25.256 82.029,25.329 81.997,25.331 82.095 C 25.332 82.205,25.886 82.286,26.781 82.307 C 28.449 82.345,28.293 82.285,28.379 82.920 C 28.453 83.476,28.378 83.454,30.375 83.481 C 31.809 83.500,31.833 83.507,31.833 83.911 C 31.833 84.339,32.248 84.669,32.781 84.664 C 33.037 84.662,33.045 84.637,32.833 84.500 C 32.683 84.403,32.663 84.337,32.782 84.336 C 32.891 84.334,33.027 84.408,33.083 84.500 C 33.150 84.608,36.466 84.663,42.514 84.657 C 47.644 84.652,51.803 84.585,51.756 84.509 C 51.709 84.433,51.798 84.381,51.954 84.394 C 52.110 84.406,52.266 84.279,52.300 84.111 C 52.355 83.844,52.315 83.829,51.973 83.997 C 51.597 84.182,51.598 84.177,52.000 83.848 C 52.377 83.540,53.437 83.399,54.958 83.455 C 55.073 83.459,55.168 83.378,55.169 83.273 C 55.171 83.169,55.244 83.196,55.333 83.333 C 55.451 83.515,55.496 83.524,55.497 83.365 C 55.499 83.245,55.585 83.200,55.689 83.264 C 55.820 83.345,55.854 83.220,55.801 82.857 L 55.724 82.333 57.237 82.314 C 59.244 82.289,59.246 82.288,59.266 82.000 C 59.323 81.154,59.310 81.167,60.125 81.164 C 61.114 81.162,61.679 81.016,61.650 80.772 C 61.564 80.052,61.639 80.000,62.792 79.988 C 63.575 79.980,63.815 79.933,63.583 79.833 C 63.266 79.697,63.484 79.577,63.903 79.656 C 63.987 79.672,63.950 79.554,63.820 79.394 C 63.669 79.208,63.659 79.148,63.792 79.228 C 63.906 79.297,64.000 79.274,64.000 79.177 C 64.000 79.079,64.206 79.000,64.458 78.999 C 65.543 78.997,66.469 78.540,65.990 78.244 C 65.727 78.081,66.329 77.697,66.696 77.793 C 67.130 77.906,67.541 77.509,67.455 77.060 C 67.392 76.732,67.460 76.677,67.983 76.634 C 68.522 76.588,68.589 76.529,68.634 76.058 C 68.679 75.598,68.761 75.520,69.301 75.421 C 70.058 75.283,70.667 74.908,70.667 74.579 C 70.667 74.337,70.858 74.262,71.314 74.326 C 71.456 74.346,71.508 74.262,71.450 74.110 C 71.397 73.973,71.458 73.821,71.585 73.772 C 71.744 73.711,71.784 73.768,71.713 73.952 C 71.643 74.136,71.674 74.182,71.813 74.096 C 71.925 74.027,72.004 73.846,71.989 73.694 C 71.935 73.148,72.007 73.067,72.542 73.075 C 73.041 73.083,73.087 73.038,73.137 72.500 C 73.187 71.952,73.500 71.349,73.500 71.800 C 73.500 71.910,73.583 72.000,73.684 72.000 C 73.786 72.000,73.826 71.888,73.773 71.750 C 73.714 71.595,73.774 71.500,73.932 71.500 C 74.082 71.500,74.137 71.579,74.067 71.692 C 73.994 71.812,74.022 71.840,74.141 71.766 C 74.388 71.613,74.392 71.167,74.146 71.167 C 73.825 71.167,74.305 70.710,74.740 70.601 C 75.167 70.494,75.500 69.781,75.500 68.975 C 75.500 68.543,75.553 68.500,76.083 68.500 C 76.637 68.500,76.667 68.471,76.667 67.927 C 76.667 67.403,76.712 67.350,77.208 67.302 C 77.682 67.257,77.756 67.183,77.801 66.721 C 77.830 66.430,77.975 66.092,78.125 65.971 C 78.322 65.811,78.363 65.807,78.272 65.958 C 78.126 66.201,78.314 66.227,78.656 66.010 C 78.853 65.885,78.857 65.813,78.679 65.598 C 78.500 65.382,78.505 65.321,78.706 65.244 C 78.840 65.192,78.956 64.925,78.964 64.649 C 78.973 64.321,79.126 64.032,79.407 63.811 C 79.864 63.452,80.371 62.688,80.000 62.917 C 79.847 63.011,79.844 62.959,79.986 62.694 C 80.088 62.503,80.161 62.288,80.149 62.215 C 80.060 61.683,80.186 61.498,80.570 61.595 C 80.953 61.691,81.382 61.280,81.316 60.882 C 81.169 60.004,81.357 59.333,81.750 59.333 C 82.009 59.333,82.167 59.239,82.167 59.083 C 82.167 58.946,82.237 58.833,82.323 58.833 C 82.409 58.833,82.472 58.627,82.462 58.375 C 82.393 56.623,82.506 55.710,82.792 55.711 C 83.446 55.714,83.525 55.658,83.495 55.208 C 83.366 53.257,83.495 52.333,83.896 52.333 C 84.114 52.333,84.374 52.235,84.475 52.114 C 84.734 51.802,84.737 32.702,84.478 32.390 C 84.341 32.225,84.344 32.167,84.489 32.167 C 84.598 32.167,84.642 32.095,84.588 32.007 C 84.534 31.920,84.367 31.895,84.217 31.952 C 84.036 32.022,83.985 31.992,84.066 31.862 C 84.143 31.737,84.063 31.667,83.843 31.667 C 83.520 31.667,83.500 31.571,83.500 30.036 L 83.500 28.406 83.055 28.369 C 82.472 28.321,82.515 28.445,82.475 26.702 C 82.439 25.119,82.393 24.928,82.042 24.900 C 81.927 24.891,81.721 24.872,81.583 24.858 C 81.393 24.839,81.333 24.603,81.331 23.875 C 81.328 22.819,81.160 22.403,80.793 22.544 C 80.367 22.707,80.194 22.434,80.104 21.453 C 80.055 20.925,79.970 20.419,79.914 20.330 C 79.753 20.069,79.501 20.142,79.607 20.419 C 79.676 20.599,79.627 20.641,79.436 20.568 C 79.289 20.511,79.206 20.404,79.252 20.330 C 79.298 20.256,79.258 20.169,79.164 20.138 C 79.070 20.107,78.976 19.838,78.955 19.541 C 78.934 19.244,78.859 19.001,78.788 19.000 C 78.718 19.000,78.706 18.820,78.761 18.599 C 78.861 18.202,78.382 17.847,78.036 18.061 C 77.963 18.106,77.888 18.018,77.870 17.863 C 77.776 17.035,77.580 16.645,77.279 16.682 C 76.795 16.742,76.667 16.635,76.667 16.170 C 76.667 15.662,76.094 15.319,75.676 15.577 C 75.573 15.641,75.495 15.527,75.488 15.302 C 75.452 14.201,75.130 13.500,74.661 13.500 C 74.362 13.500,74.252 13.319,74.319 12.941 C 74.385 12.573,74.129 12.124,73.984 12.353 C 73.869 12.535,73.838 12.537,73.836 12.364 C 73.834 12.220,73.718 12.181,73.500 12.250 C 73.228 12.336,73.163 12.276,73.146 11.928 C 73.108 11.146,73.085 11.084,72.833 11.067 C 72.696 11.058,72.455 11.039,72.298 11.025 C 72.140 11.011,71.927 10.841,71.823 10.647 C 71.690 10.398,71.688 10.327,71.817 10.406 C 71.918 10.469,72.000 10.449,72.000 10.364 C 72.000 10.137,71.561 9.808,71.304 9.843 C 70.827 9.908,70.667 9.819,70.667 9.491 C 70.667 9.115,69.816 8.667,69.100 8.667 C 68.690 8.667,68.437 8.281,68.536 7.809 C 68.564 7.674,68.466 7.603,68.290 7.633 C 67.855 7.706,67.419 7.403,67.396 7.012 C 67.356 6.346,67.331 6.298,67.084 6.394 C 66.640 6.564,66.091 6.245,66.087 5.816 C 66.084 5.494,65.997 5.418,65.637 5.422 C 65.392 5.425,65.229 5.367,65.274 5.294 C 65.320 5.220,65.146 5.174,64.887 5.192 C 64.305 5.231,63.667 5.033,63.667 4.812 C 63.667 4.721,63.760 4.694,63.875 4.753 C 63.990 4.811,63.953 4.751,63.794 4.621 C 63.635 4.490,63.558 4.331,63.623 4.266 C 63.687 4.202,63.599 4.203,63.426 4.270 C 63.207 4.353,63.149 4.331,63.232 4.195 C 63.318 4.056,63.111 4.000,62.510 4.000 C 61.685 4.000,61.583 3.925,61.655 3.374 C 61.693 3.080,60.965 2.838,60.254 2.907 C 59.559 2.974,59.155 2.665,59.285 2.167 C 59.353 1.905,59.312 1.852,59.101 1.933 C 58.952 1.990,58.720 1.946,58.586 1.835 C 58.420 1.698,57.945 1.662,57.088 1.723 C 55.780 1.816,55.677 1.754,55.818 0.946 C 55.831 0.870,55.765 0.856,55.671 0.914 C 55.577 0.972,55.499 0.921,55.497 0.802 C 55.496 0.643,55.451 0.652,55.333 0.833 C 55.244 0.971,55.171 1.002,55.169 0.903 C 55.168 0.803,55.073 0.717,54.958 0.711 C 53.457 0.629,52.333 0.422,52.333 0.226 C 52.333 0.038,50.601 0.000,42.083 0.000 C 33.569 0.000,31.833 0.038,31.833 0.226 M47.853 7.708 C 47.864 7.823,47.861 7.981,47.847 8.059 C 47.794 8.354,48.239 8.685,48.653 8.659 C 48.890 8.644,49.614 8.639,50.263 8.649 L 51.442 8.667 51.369 9.169 C 51.308 9.578,51.344 9.652,51.564 9.568 C 51.712 9.511,51.833 9.537,51.833 9.627 C 51.833 9.716,52.199 9.789,52.647 9.789 C 53.555 9.789,53.897 9.926,53.721 10.220 C 53.656 10.328,53.742 10.304,53.912 10.167 C 54.203 9.931,54.209 9.939,54.014 10.306 C 53.900 10.520,53.850 10.739,53.903 10.792 C 53.956 10.845,54.000 10.801,54.000 10.694 C 54.000 10.588,54.112 10.500,54.250 10.500 C 54.387 10.500,54.500 10.579,54.500 10.677 C 54.500 10.774,54.575 10.807,54.667 10.750 C 54.758 10.693,54.833 10.725,54.833 10.820 C 54.833 10.916,55.057 10.967,55.331 10.936 C 55.879 10.872,56.149 11.092,56.077 11.542 C 56.035 11.801,56.279 11.921,56.708 11.853 C 56.777 11.842,56.833 11.913,56.833 12.010 C 56.833 12.108,56.965 12.174,57.125 12.158 C 57.901 12.079,58.100 12.176,58.257 12.708 C 58.394 13.172,58.490 13.248,58.930 13.237 C 59.390 13.225,59.436 13.268,59.375 13.654 C 59.319 14.007,59.342 14.039,59.501 13.833 C 59.664 13.624,59.683 13.640,59.620 13.935 C 59.560 14.211,59.619 14.280,59.897 14.257 C 60.270 14.228,61.002 14.768,60.997 15.071 C 60.996 15.169,60.922 15.137,60.833 15.000 C 60.693 14.783,60.671 14.786,60.669 15.024 C 60.667 15.313,60.992 15.500,61.496 15.500 C 61.679 15.500,61.839 15.665,61.903 15.922 C 61.978 16.220,62.155 16.373,62.508 16.443 C 62.782 16.498,63.054 16.620,63.113 16.714 C 63.177 16.819,63.135 16.833,63.001 16.751 C 62.825 16.642,62.878 17.481,63.055 17.602 C 63.071 17.612,63.305 17.693,63.577 17.781 C 63.973 17.909,64.072 18.037,64.077 18.428 C 64.083 18.858,64.143 18.917,64.583 18.917 C 65.028 18.917,65.093 18.981,65.167 19.500 C 65.240 20.016,65.313 20.089,65.792 20.136 C 66.302 20.185,66.333 20.225,66.333 20.844 C 66.333 21.752,66.761 22.500,67.280 22.500 C 67.434 22.500,67.500 22.758,67.500 23.354 C 67.500 24.131,67.525 24.187,67.777 23.979 C 68.028 23.772,68.036 23.785,67.861 24.114 C 67.613 24.578,67.616 24.611,67.909 24.611 C 68.043 24.611,68.103 24.530,68.044 24.431 C 67.985 24.331,68.051 24.343,68.192 24.457 C 68.332 24.571,68.497 24.614,68.557 24.554 C 68.655 24.456,68.751 26.255,68.676 26.804 C 68.660 26.926,68.781 27.010,68.948 26.993 C 69.717 26.913,69.749 26.958,69.766 28.125 C 69.799 30.345,69.823 30.458,70.274 30.458 C 70.884 30.458,70.867 30.327,70.912 35.199 C 70.961 40.501,70.917 41.106,70.481 41.220 C 70.005 41.344,69.820 42.068,69.784 43.952 L 69.750 45.673 69.250 45.628 L 68.750 45.583 68.700 46.641 C 68.650 47.701,68.417 48.161,67.824 48.372 C 67.646 48.436,67.551 48.719,67.522 49.270 C 67.474 50.212,67.475 50.211,66.877 50.243 C 66.377 50.269,66.385 50.250,66.354 51.573 C 66.334 52.468,66.327 52.479,65.792 52.531 C 65.315 52.577,65.244 52.649,65.198 53.125 C 65.151 53.614,65.093 53.667,64.605 53.667 C 64.103 53.667,64.067 53.704,64.100 54.186 C 64.127 54.575,64.056 54.727,63.818 54.789 C 63.643 54.835,63.499 54.957,63.497 55.061 C 63.496 55.172,63.435 55.155,63.349 55.020 C 63.120 54.658,62.836 54.965,62.899 55.507 C 62.956 55.997,62.870 56.068,62.287 56.008 C 62.092 55.988,61.929 56.153,61.812 56.489 C 61.714 56.770,61.518 57.000,61.377 57.000 C 61.236 57.000,61.013 57.131,60.881 57.292 C 60.750 57.452,60.697 57.478,60.763 57.349 C 60.843 57.195,60.819 57.156,60.692 57.234 C 60.587 57.299,60.500 57.536,60.500 57.760 C 60.500 58.103,60.420 58.167,59.990 58.167 C 59.693 58.167,59.523 58.236,59.583 58.333 C 59.640 58.425,59.598 58.500,59.490 58.500 C 59.371 58.500,59.326 58.663,59.374 58.917 C 59.440 59.262,59.387 59.337,59.060 59.354 C 58.844 59.366,58.573 59.385,58.458 59.397 C 58.344 59.408,58.247 59.621,58.242 59.869 C 58.232 60.480,58.206 60.494,57.029 60.520 L 56.000 60.544 56.000 61.105 C 56.000 61.714,56.057 61.692,54.333 61.735 C 53.801 61.749,53.745 61.797,53.698 62.292 C 53.651 62.773,52.590 63.120,52.125 62.805 C 52.102 62.790,51.921 62.864,51.722 62.971 C 51.447 63.118,51.345 63.117,51.295 62.969 C 51.216 62.732,50.832 62.940,50.836 63.218 C 50.837 63.337,50.903 63.317,51.000 63.167 C 51.089 63.029,51.162 62.992,51.162 63.083 C 51.162 63.744,50.348 63.999,48.165 64.024 C 46.831 64.039,46.381 64.097,46.438 64.245 C 46.480 64.356,46.396 64.546,46.250 64.667 C 46.038 64.842,46.028 64.915,46.200 65.024 C 46.361 65.126,46.342 65.162,46.125 65.164 C 45.826 65.167,45.742 64.980,45.949 64.773 C 46.129 64.593,46.155 64.167,45.985 64.167 C 45.902 64.167,45.824 64.242,45.813 64.333 C 45.801 64.425,45.773 64.575,45.750 64.667 C 45.727 64.758,45.699 64.908,45.688 65.000 C 45.676 65.092,45.603 65.167,45.526 65.167 C 45.449 65.167,45.433 64.885,45.491 64.542 C 45.572 64.058,45.665 63.929,45.898 63.969 C 46.101 64.005,46.159 63.955,46.074 63.818 C 45.984 63.673,46.050 63.641,46.302 63.707 C 46.562 63.775,46.651 63.726,46.635 63.525 C 46.584 62.868,46.681 62.687,47.112 62.636 C 47.357 62.607,47.588 62.490,47.626 62.375 C 47.708 62.126,47.232 62.092,47.110 62.338 C 47.063 62.431,47.044 62.413,47.067 62.296 C 47.090 62.179,47.268 62.060,47.463 62.031 C 47.756 61.988,47.824 61.847,47.866 61.198 C 47.914 60.452,47.939 60.417,48.417 60.417 C 48.833 60.417,48.920 60.347,48.937 60.000 C 48.975 59.242,48.997 59.190,49.334 59.083 C 49.745 58.953,49.969 58.552,50.094 57.722 C 50.186 57.107,50.582 56.595,50.840 56.754 C 50.909 56.797,51.008 56.719,51.061 56.582 C 51.176 56.283,50.977 56.256,50.700 56.533 C 50.544 56.689,50.500 56.688,50.500 56.528 C 50.500 56.415,50.631 56.274,50.792 56.215 C 51.232 56.053,51.283 55.903,51.314 54.695 C 51.341 53.605,51.562 53.162,52.074 53.169 C 52.171 53.171,52.137 53.244,52.000 53.333 C 51.790 53.469,51.799 53.495,52.061 53.497 C 52.291 53.499,52.349 53.413,52.285 53.167 C 52.237 52.983,52.257 52.833,52.329 52.833 C 52.523 52.833,52.495 44.123,52.300 43.882 C 52.211 43.772,52.194 43.590,52.263 43.479 C 52.349 43.340,52.302 43.310,52.111 43.383 C 51.958 43.442,51.833 43.417,51.833 43.328 C 51.833 43.239,51.721 43.167,51.583 43.167 C 51.410 43.167,51.326 42.975,51.308 42.542 C 51.294 42.198,51.276 41.730,51.267 41.502 C 51.254 41.176,51.142 41.068,50.750 41.001 C 50.371 40.935,50.238 40.814,50.199 40.499 C 50.084 39.560,49.805 38.999,49.404 38.899 C 49.182 38.843,49.000 38.693,49.000 38.565 C 49.000 38.438,48.927 38.333,48.839 38.333 C 48.750 38.333,48.723 38.213,48.780 38.067 C 48.927 37.682,48.540 37.505,47.542 37.503 C 46.861 37.501,46.667 37.442,46.667 37.240 C 46.667 37.097,46.587 37.030,46.489 37.090 C 46.384 37.155,46.333 37.083,46.364 36.914 C 46.436 36.524,45.877 36.164,45.683 36.476 C 45.581 36.639,45.509 36.649,45.424 36.512 C 45.286 36.289,37.888 36.277,37.750 36.500 C 37.704 36.575,37.835 36.604,38.041 36.566 C 38.248 36.528,38.322 36.541,38.207 36.596 C 38.092 36.650,38.036 36.757,38.083 36.832 C 38.129 36.907,38.005 36.927,37.807 36.875 C 37.504 36.795,37.462 36.837,37.541 37.140 C 37.620 37.440,37.562 37.502,37.193 37.513 C 35.693 37.556,35.167 38.035,35.167 39.358 C 35.167 39.774,35.105 39.833,34.671 39.833 C 34.253 39.833,34.155 39.917,34.036 40.375 C 33.926 40.799,33.789 40.935,33.406 41.002 C 32.880 41.093,32.910 40.986,32.852 42.958 C 32.839 43.394,32.773 43.675,32.706 43.583 C 32.501 43.305,32.002 43.301,31.896 43.578 C 31.841 43.721,31.889 43.949,32.002 44.085 C 32.169 44.286,32.159 44.333,31.953 44.333 C 31.731 44.333,31.697 44.865,31.695 48.417 C 31.693 51.882,31.730 52.500,31.936 52.500 C 32.128 52.500,32.141 52.571,31.998 52.837 C 31.788 53.230,31.907 53.500,32.292 53.500 C 32.521 53.500,32.513 53.459,32.240 53.241 C 31.928 52.991,31.929 52.988,32.282 53.158 C 32.795 53.406,32.826 53.491,32.852 54.727 C 32.868 55.431,32.938 55.789,33.047 55.721 C 33.148 55.659,33.167 55.697,33.095 55.815 C 32.937 56.071,33.430 56.833,33.754 56.833 C 33.932 56.833,34.001 57.029,34.003 57.542 C 34.004 58.060,34.048 58.183,34.167 58.000 C 34.274 57.833,34.329 57.819,34.331 57.958 C 34.332 58.073,34.521 58.167,34.750 58.167 C 35.126 58.167,35.169 58.236,35.188 58.875 C 35.235 60.463,35.219 60.416,35.711 60.434 C 36.300 60.455,36.287 60.437,36.392 61.393 C 36.489 62.286,36.615 62.520,36.819 62.190 C 36.924 62.019,36.976 62.031,37.058 62.245 C 37.119 62.404,37.094 62.475,36.998 62.415 C 36.907 62.359,36.833 62.388,36.833 62.479 C 36.833 62.569,37.002 62.669,37.208 62.701 C 37.415 62.732,37.565 62.847,37.544 62.957 C 37.499 63.178,38.259 64.000,38.508 64.000 C 38.663 64.000,38.737 64.358,38.675 64.808 C 38.658 64.932,38.724 64.984,38.822 64.924 C 38.920 64.863,39.000 64.893,39.000 64.990 C 39.000 65.087,38.794 65.161,38.542 65.154 C 38.290 65.146,38.177 65.103,38.292 65.056 C 39.124 64.721,38.280 64.007,37.073 64.026 C 34.195 64.069,34.036 64.044,33.920 63.514 C 33.785 62.903,33.705 62.875,32.002 62.850 C 30.575 62.829,30.309 62.713,30.451 62.171 C 30.495 62.002,30.413 61.836,30.255 61.775 C 30.067 61.703,30.021 61.734,30.107 61.877 C 30.199 62.031,30.163 62.029,29.966 61.869 C 29.821 61.751,29.638 61.666,29.559 61.681 C 28.917 61.796,28.167 61.638,28.167 61.388 C 28.167 61.002,27.679 60.500,27.303 60.500 C 27.127 60.500,26.925 60.325,26.839 60.098 C 26.663 59.634,26.051 59.380,25.032 59.346 C 24.806 59.339,24.692 59.261,24.756 59.157 C 24.918 58.894,24.688 58.150,24.454 58.180 C 23.740 58.271,23.523 58.162,23.598 57.750 C 23.652 57.450,23.600 57.333,23.410 57.333 C 23.265 57.333,23.196 57.253,23.257 57.156 C 23.317 57.058,23.266 56.992,23.142 57.009 C 22.575 57.086,22.301 56.992,22.394 56.750 C 22.446 56.612,22.417 56.500,22.328 56.500 C 22.239 56.500,22.167 56.421,22.167 56.323 C 22.167 56.226,22.260 56.194,22.375 56.253 C 22.490 56.311,22.438 56.240,22.260 56.096 C 22.082 55.951,21.806 55.833,21.646 55.833 C 21.473 55.833,21.335 55.683,21.303 55.458 C 21.270 55.227,21.044 54.987,20.712 54.833 C 20.299 54.641,20.173 54.477,20.170 54.125 C 20.167 53.763,20.088 53.666,19.792 53.664 C 19.224 53.660,19.015 53.458,18.970 52.868 C 18.944 52.523,18.838 52.329,18.673 52.320 C 18.470 52.310,18.465 52.288,18.649 52.215 C 18.801 52.155,18.701 52.048,18.357 51.903 C 17.897 51.710,17.833 51.604,17.833 51.033 C 17.833 50.057,17.531 49.348,17.067 49.231 C 16.688 49.136,16.591 48.875,16.622 48.042 C 16.627 47.915,16.411 47.833,16.071 47.833 L 15.512 47.833 15.464 46.125 L 15.417 44.417 14.955 44.400 C 14.320 44.377,14.356 44.539,14.319 41.542 C 14.300 40.058,14.221 38.883,14.142 38.932 C 14.064 38.980,14.000 38.949,14.000 38.862 C 14.000 38.775,13.869 38.714,13.708 38.727 C 13.445 38.748,13.412 38.515,13.371 36.300 C 13.326 33.926,13.335 33.853,13.659 33.915 C 13.843 33.951,13.986 33.928,13.977 33.865 C 13.919 33.457,14.037 33.281,14.167 33.583 C 14.254 33.788,14.314 32.803,14.322 31.042 L 14.333 28.167 14.792 28.147 C 15.044 28.136,15.306 28.136,15.375 28.147 C 15.444 28.158,15.491 28.110,15.480 28.042 C 15.469 27.973,15.469 27.197,15.480 26.318 L 15.500 24.720 16.042 24.735 L 16.583 24.750 16.667 23.583 C 16.747 22.465,16.767 22.418,17.167 22.439 C 17.650 22.464,17.827 22.255,17.831 21.652 C 17.833 21.354,17.963 21.161,18.253 21.029 C 18.718 20.817,19.000 20.236,19.000 19.489 C 19.000 19.022,19.280 18.881,20.022 18.974 C 20.080 18.981,20.124 18.896,20.121 18.785 C 20.095 17.988,20.175 17.854,20.708 17.802 C 21.006 17.774,21.259 17.656,21.271 17.542 C 21.282 17.427,21.301 17.156,21.313 16.940 C 21.330 16.612,21.404 16.560,21.757 16.627 C 22.057 16.685,22.166 16.642,22.132 16.479 C 22.105 16.353,22.177 16.269,22.292 16.292 C 22.412 16.316,22.500 16.165,22.500 15.936 C 22.500 15.572,22.797 15.357,23.417 15.272 C 23.508 15.259,23.593 15.137,23.606 15.000 C 23.618 14.862,23.637 14.656,23.647 14.542 C 23.658 14.427,23.886 14.333,24.157 14.333 C 24.426 14.333,24.701 14.247,24.766 14.141 C 24.836 14.028,24.812 13.994,24.708 14.058 C 24.593 14.129,24.599 14.024,24.724 13.758 C 24.854 13.481,25.078 13.333,25.414 13.299 C 25.829 13.258,25.917 13.171,25.947 12.772 C 25.994 12.153,26.002 12.148,26.901 12.113 C 27.322 12.097,27.667 12.019,27.667 11.941 C 27.667 11.862,27.778 11.840,27.915 11.893 C 28.051 11.945,28.155 11.934,28.145 11.869 C 28.056 11.275,28.208 11.058,28.828 10.892 C 29.192 10.795,29.450 10.780,29.401 10.858 C 29.353 10.936,29.393 11.000,29.490 11.000 C 29.587 11.000,29.667 10.929,29.667 10.843 C 29.667 10.756,29.817 10.715,30.000 10.750 C 30.318 10.811,30.406 10.672,30.345 10.206 C 30.308 9.924,30.655 9.808,31.707 9.751 C 32.189 9.725,32.630 9.695,32.688 9.685 C 32.745 9.675,32.792 9.476,32.792 9.243 C 32.792 8.669,32.736 8.690,34.415 8.653 C 35.817 8.622,36.383 8.443,36.317 8.051 C 36.224 7.506,36.292 7.500,42.083 7.500 C 46.562 7.500,47.838 7.546,47.853 7.708 M203.946 21.454 C 203.761 21.500,203.679 21.625,203.736 21.773 C 203.788 21.910,203.757 21.973,203.665 21.915 C 203.574 21.859,203.500 21.968,203.500 22.157 C 203.500 22.477,203.402 22.500,202.042 22.503 C 200.410 22.505,200.265 22.558,200.106 23.208 C 200.001 23.637,199.541 23.805,198.792 23.686 C 198.723 23.676,198.667 23.751,198.667 23.854 C 198.667 23.981,198.585 23.973,198.411 23.829 C 198.128 23.594,197.682 24.003,197.672 24.507 C 197.669 24.651,197.428 24.835,197.125 24.924 C 196.827 25.012,196.573 25.196,196.561 25.333 C 196.549 25.471,196.530 25.677,196.519 25.792 C 196.509 25.907,196.281 26.000,196.011 26.000 C 194.892 26.000,194.364 26.520,194.282 27.702 C 194.261 28.011,194.157 28.166,193.972 28.166 C 193.407 28.167,193.167 28.372,193.167 28.851 C 193.167 29.169,193.081 29.333,192.917 29.333 C 192.779 29.333,192.667 29.413,192.667 29.510 C 192.667 29.607,192.592 29.640,192.500 29.583 C 192.408 29.527,192.332 29.579,192.331 29.698 C 192.329 29.857,192.284 29.848,192.167 29.667 C 192.048 29.481,192.011 29.567,192.024 30.000 C 192.067 31.350,192.007 31.667,191.708 31.672 C 191.159 31.682,190.465 32.500,191.006 32.500 C 191.125 32.500,191.125 32.600,191.006 32.822 C 190.911 33.000,190.833 33.600,190.833 34.156 C 190.833 35.153,190.773 35.252,190.208 35.179 C 190.094 35.164,190.000 35.235,190.000 35.336 C 190.000 35.437,190.075 35.473,190.167 35.417 C 190.258 35.360,190.333 35.389,190.333 35.480 C 190.333 35.797,190.020 35.839,189.848 35.545 C 189.727 35.339,189.686 37.977,189.713 44.250 L 189.750 53.250 190.292 53.409 L 190.833 53.569 190.850 54.826 C 190.878 57.015,190.850 56.917,191.458 56.915 C 191.971 56.914,192.000 56.946,192.000 57.522 C 192.000 57.910,192.091 58.166,192.250 58.227 C 192.387 58.280,192.500 58.442,192.500 58.588 C 192.500 58.748,192.577 58.805,192.695 58.732 C 192.826 58.651,192.855 58.703,192.784 58.889 C 192.725 59.042,192.744 59.167,192.825 59.167 C 192.906 59.167,193.010 59.073,193.056 58.958 C 193.128 58.780,193.242 60.021,193.186 60.375 C 193.176 60.444,193.223 60.491,193.292 60.480 C 193.918 60.381,194.157 60.531,194.262 61.086 C 194.322 61.409,194.457 61.662,194.561 61.650 C 195.089 61.587,195.333 61.693,195.333 61.986 C 195.333 62.443,195.512 62.846,195.670 62.748 C 196.039 62.520,196.624 62.979,196.538 63.429 C 196.478 63.744,196.510 63.847,196.643 63.765 C 196.747 63.700,196.833 63.722,196.833 63.813 C 196.833 63.905,196.965 63.983,197.125 63.987 C 197.886 64.009,197.972 64.060,197.944 64.483 C 197.922 64.827,197.998 64.918,198.333 64.949 C 198.563 64.969,198.938 65.017,199.167 65.055 C 199.396 65.093,199.670 65.134,199.775 65.145 C 199.881 65.157,200.046 65.392,200.142 65.667 C 200.261 66.009,200.427 66.167,200.668 66.167 C 200.861 66.167,200.974 66.093,200.918 66.002 C 200.859 65.907,200.926 65.879,201.075 65.936 C 201.217 65.991,201.333 66.091,201.333 66.160 C 201.333 66.266,202.795 66.391,203.708 66.363 C 203.869 66.358,204.000 66.429,204.000 66.520 C 204.000 66.612,203.925 66.640,203.833 66.583 C 203.742 66.527,203.667 66.599,203.667 66.744 C 203.667 67.137,204.478 67.469,204.676 67.157 C 204.784 66.987,204.829 66.978,204.831 67.128 C 204.833 67.295,206.701 67.337,213.926 67.330 C 222.442 67.323,223.013 67.304,222.930 67.036 C 222.757 66.482,223.056 66.347,224.548 66.308 C 225.346 66.286,226.000 66.209,226.000 66.135 C 226.000 66.061,226.121 66.000,226.269 66.000 C 226.455 66.000,226.512 65.898,226.453 65.673 C 226.329 65.196,226.638 65.045,227.623 65.102 C 228.520 65.153,228.792 64.970,228.759 64.333 C 228.751 64.171,228.952 64.054,229.332 64.000 C 229.845 63.927,229.917 63.857,229.922 63.434 C 229.928 62.984,230.734 62.566,231.706 62.507 C 231.888 62.496,232.333 61.353,232.333 60.896 C 232.333 60.637,232.434 60.493,232.625 60.481 C 232.785 60.470,233.029 60.451,233.167 60.439 C 233.304 60.427,233.424 60.267,233.434 60.083 C 233.469 59.399,233.509 59.333,233.897 59.333 C 234.357 59.333,234.494 58.984,234.498 57.802 C 234.500 57.043,234.515 57.020,235.042 56.969 L 235.583 56.917 235.631 55.208 C 235.681 53.396,235.652 53.453,236.536 53.455 C 236.955 53.456,236.995 36.649,236.578 35.789 C 236.335 35.287,236.336 35.273,236.590 35.583 L 236.863 35.917 236.802 35.583 C 236.756 35.331,236.611 35.250,236.204 35.252 L 235.667 35.253 235.643 33.918 C 235.630 33.184,235.626 32.417,235.635 32.214 C 235.647 31.921,235.532 31.823,235.075 31.737 C 234.487 31.627,234.350 31.169,234.492 29.788 C 234.509 29.626,234.461 29.507,234.386 29.524 C 233.917 29.631,233.399 29.286,233.408 28.872 C 233.415 28.513,233.315 28.401,232.875 28.274 C 232.577 28.189,232.327 28.036,232.319 27.934 C 232.268 27.246,232.191 26.978,231.931 26.583 C 231.731 26.276,231.538 26.161,231.319 26.219 C 231.143 26.265,231.042 26.234,231.093 26.151 C 231.144 26.068,230.919 26.000,230.593 26.000 C 230.118 26.000,229.996 25.934,229.979 25.667 C 229.968 25.483,229.949 25.240,229.938 25.125 C 229.926 25.010,229.654 24.879,229.333 24.833 C 228.858 24.765,228.754 24.681,228.770 24.379 C 228.780 24.175,228.730 24.044,228.658 24.089 C 228.586 24.133,228.427 24.073,228.305 23.954 C 228.183 23.835,227.746 23.715,227.334 23.686 C 226.437 23.625,226.318 23.566,226.443 23.243 C 226.508 23.072,226.459 23.026,226.281 23.095 C 226.086 23.169,226.046 23.109,226.115 22.846 C 226.167 22.648,226.126 22.500,226.019 22.500 C 225.917 22.500,225.832 22.594,225.831 22.708 C 225.829 22.865,225.794 22.862,225.688 22.696 C 225.611 22.574,225.443 22.489,225.316 22.507 C 224.273 22.653,223.066 22.477,222.861 22.149 C 222.741 21.956,222.723 21.848,222.821 21.909 C 223.080 22.069,223.042 21.742,222.776 21.522 C 222.557 21.340,204.671 21.276,203.946 21.454 M97.444 23.778 C 97.307 23.916,97.320 25.167,97.471 26.165 C 97.571 26.833,97.637 26.923,98.083 27.000 C 98.576 27.086,98.583 27.102,98.548 28.038 C 98.523 28.687,98.589 29.065,98.754 29.231 C 98.939 29.415,98.947 29.491,98.790 29.549 C 98.541 29.639,98.841 30.250,99.135 30.250 C 99.494 30.250,99.734 30.679,99.695 31.251 C 99.674 31.571,99.723 31.833,99.805 31.833 C 99.887 31.833,99.916 32.029,99.871 32.269 C 99.796 32.658,99.827 32.691,100.165 32.584 C 100.447 32.494,100.509 32.517,100.410 32.677 C 100.317 32.828,100.359 32.859,100.556 32.784 C 100.840 32.675,100.914 33.040,100.841 34.186 C 100.807 34.717,101.271 35.222,101.692 35.112 C 101.998 35.032,102.109 35.671,102.008 36.944 C 101.979 37.311,102.503 37.621,102.820 37.425 C 103.073 37.269,103.166 37.572,103.186 38.610 C 103.210 39.847,103.531 40.667,103.991 40.667 C 104.288 40.667,104.334 40.772,104.336 41.458 C 104.339 42.669,104.478 43.004,105.022 43.113 C 105.499 43.208,105.601 43.471,105.509 44.375 C 105.492 44.535,105.559 44.667,105.656 44.667 C 105.754 44.667,105.833 44.746,105.833 44.843 C 105.833 44.940,105.758 44.973,105.667 44.917 C 105.575 44.860,105.500 44.902,105.500 45.010 C 105.500 45.126,105.641 45.169,105.846 45.115 C 106.109 45.046,106.169 45.086,106.095 45.281 C 106.026 45.459,106.072 45.508,106.243 45.443 C 106.590 45.309,106.666 45.504,106.711 46.639 C 106.732 47.187,106.806 47.600,106.875 47.558 C 106.944 47.515,107.000 47.549,107.000 47.634 C 107.000 47.718,107.188 47.767,107.417 47.742 C 107.811 47.698,107.834 47.742,107.853 48.556 C 107.863 49.030,107.889 49.492,107.911 49.583 C 107.932 49.675,107.961 49.844,107.975 49.958 C 107.989 50.073,108.225 50.167,108.500 50.167 L 109.000 50.167 109.002 51.292 C 109.005 52.577,109.261 53.226,109.796 53.303 C 110.097 53.346,110.171 53.472,110.192 53.970 C 110.234 54.993,110.258 55.085,110.466 55.042 C 110.578 55.018,110.661 55.166,110.654 55.375 C 110.646 55.581,110.603 55.656,110.556 55.542 C 110.510 55.427,110.388 55.333,110.286 55.333 C 110.156 55.333,110.160 55.393,110.298 55.532 C 110.560 55.793,111.000 55.851,111.000 55.624 C 111.000 55.118,111.210 55.752,111.273 56.447 C 111.425 58.137,111.406 58.084,111.886 58.077 C 112.367 58.070,112.380 58.098,112.337 59.042 C 112.320 59.395,112.386 59.667,112.487 59.667 C 112.586 59.667,112.667 59.863,112.667 60.103 C 112.667 60.478,112.725 60.528,113.083 60.459 C 113.520 60.376,113.600 60.628,113.519 61.833 C 113.472 62.542,113.868 63.522,114.263 63.672 C 114.608 63.803,114.801 64.422,114.844 65.538 C 114.850 65.697,114.914 65.864,114.987 65.909 C 115.060 65.954,115.099 65.805,115.075 65.579 C 115.050 65.352,115.057 65.167,115.092 65.167 C 115.253 65.167,115.812 65.900,115.740 66.017 C 115.572 66.287,116.863 66.352,121.398 66.302 L 126.046 66.250 126.097 65.773 C 126.159 65.187,126.162 65.185,126.762 65.108 C 128.130 64.931,128.452 64.546,128.487 63.042 C 128.494 62.744,128.565 62.519,128.645 62.542 C 128.724 62.565,128.955 62.396,129.157 62.167 C 129.360 61.938,129.478 61.844,129.420 61.958 C 129.361 62.073,129.393 62.167,129.490 62.167 C 129.596 62.167,129.674 61.685,129.686 60.958 C 129.697 60.294,129.740 59.881,129.782 60.042 C 129.879 60.414,130.045 60.411,130.391 60.029 C 130.740 59.643,130.737 59.543,130.375 59.448 C 130.156 59.391,130.176 59.367,130.458 59.353 C 130.781 59.336,130.833 59.241,130.833 58.667 C 130.833 58.182,130.902 58.000,131.086 58.000 C 131.583 58.000,131.999 56.994,131.999 55.792 C 132.000 54.737,132.023 54.667,132.375 54.664 C 132.984 54.660,133.114 54.466,133.145 53.520 C 133.178 52.516,133.252 52.314,133.547 52.422 C 133.925 52.561,134.229 52.195,134.269 51.554 C 134.352 50.208,134.407 49.859,134.523 49.931 C 134.735 50.062,135.544 49.188,135.446 48.934 C 135.317 48.597,135.649 47.470,135.842 47.589 C 135.929 47.642,136.000 47.572,136.000 47.432 C 136.000 47.259,136.093 47.212,136.292 47.286 C 136.556 47.386,136.560 47.367,136.333 47.083 C 136.196 46.910,136.175 46.824,136.287 46.891 C 136.493 47.015,136.725 46.449,136.659 45.981 C 136.573 45.360,136.683 45.000,136.958 45.003 C 137.209 45.005,137.215 45.029,137.000 45.178 C 136.794 45.321,136.808 45.342,137.083 45.298 C 137.491 45.234,137.532 44.741,137.127 44.773 C 136.967 44.785,136.882 44.723,136.937 44.633 C 136.992 44.544,137.179 44.508,137.352 44.553 C 137.525 44.598,137.672 44.624,137.679 44.609 C 137.686 44.595,137.732 44.021,137.781 43.333 C 137.882 41.903,137.852 41.974,138.381 41.941 C 138.759 41.918,138.786 41.850,138.818 40.837 C 138.859 39.584,138.844 39.612,139.494 39.630 C 139.768 39.638,139.985 39.593,139.977 39.530 C 139.845 38.597,140.033 37.500,140.323 37.500 C 140.501 37.500,140.694 37.424,140.752 37.331 C 140.809 37.237,140.926 37.204,141.012 37.257 C 141.102 37.313,141.167 36.856,141.167 36.167 C 141.167 35.497,141.233 35.021,141.318 35.074 C 141.551 35.218,142.000 34.993,142.000 34.732 C 142.000 34.604,142.062 34.500,142.137 34.500 C 142.212 34.500,142.292 34.109,142.313 33.630 C 142.359 32.629,142.586 32.226,142.939 32.518 C 143.148 32.692,143.237 32.610,143.186 32.292 C 143.176 32.223,143.238 32.167,143.325 32.167 C 143.413 32.167,143.477 31.998,143.469 31.792 C 143.429 30.842,143.515 30.167,143.677 30.167 C 143.774 30.167,143.799 30.253,143.734 30.359 C 143.659 30.480,143.688 30.506,143.812 30.430 C 143.920 30.363,143.988 30.183,143.963 30.029 C 143.933 29.851,144.022 29.758,144.208 29.773 C 144.369 29.786,144.500 29.735,144.500 29.660 C 144.500 29.586,144.369 29.490,144.208 29.448 C 143.989 29.391,144.009 29.367,144.292 29.353 C 144.643 29.335,144.667 29.260,144.667 28.167 C 144.667 26.952,144.669 26.948,145.458 27.010 C 145.673 27.027,145.799 26.300,145.817 24.951 L 145.833 23.652 139.542 23.701 L 133.250 23.750 133.275 24.292 C 133.299 24.837,133.067 24.957,132.208 24.846 C 132.076 24.829,132.000 25.031,132.000 25.399 C 132.000 25.931,131.956 25.983,131.458 26.031 C 130.926 26.082,130.916 26.098,130.890 26.966 C 130.855 28.124,130.759 28.333,130.265 28.333 C 129.721 28.333,129.692 28.402,129.651 29.796 C 129.632 30.452,129.559 30.953,129.488 30.909 C 129.418 30.866,129.242 30.949,129.097 31.094 C 128.952 31.239,128.833 31.281,128.833 31.187 C 128.833 31.093,128.965 30.940,129.125 30.847 C 129.285 30.753,129.332 30.675,129.229 30.672 C 128.874 30.662,128.606 31.142,128.821 31.402 C 128.970 31.582,128.969 31.666,128.816 31.761 C 128.680 31.845,128.659 31.814,128.750 31.667 C 128.830 31.538,128.819 31.489,128.724 31.548 C 128.636 31.602,128.550 32.153,128.535 32.770 C 128.508 33.811,128.309 34.275,127.978 34.070 C 127.912 34.029,127.809 34.147,127.750 34.333 C 127.691 34.519,127.565 34.623,127.470 34.565 C 127.357 34.495,127.325 34.695,127.376 35.142 C 127.422 35.536,127.363 36.005,127.238 36.247 C 127.084 36.542,127.076 36.667,127.208 36.667 C 127.312 36.667,127.251 36.777,127.074 36.911 C 126.687 37.204,126.500 37.230,126.500 36.990 C 126.500 36.893,126.570 36.857,126.655 36.910 C 126.740 36.962,126.854 36.934,126.908 36.848 C 126.962 36.761,126.938 36.648,126.855 36.597 C 126.531 36.396,126.291 37.058,126.239 38.291 C 126.210 39.002,126.182 39.640,126.176 39.708 C 126.171 39.777,125.942 39.833,125.667 39.833 C 125.126 39.833,125.158 39.729,125.083 41.750 C 125.067 42.187,125.010 42.243,124.632 42.198 C 124.393 42.170,124.142 42.239,124.072 42.352 C 123.981 42.498,124.033 42.523,124.255 42.438 C 124.543 42.327,124.546 42.340,124.294 42.618 C 123.980 42.965,124.000 42.847,124.000 44.323 L 124.000 45.479 123.458 45.531 L 122.917 45.583 122.867 46.633 C 122.807 47.893,122.269 48.761,121.879 48.227 C 121.683 47.959,121.667 47.965,121.667 48.301 C 121.667 48.502,121.740 48.667,121.830 48.667 C 121.929 48.667,121.918 48.830,121.803 49.083 C 121.602 49.525,121.230 49.676,121.394 49.250 C 121.466 49.062,121.366 49.000,120.995 49.000 C 120.479 49.000,120.385 48.690,120.496 47.356 C 120.516 47.112,120.461 47.005,120.350 47.073 C 120.239 47.141,120.208 47.085,120.269 46.927 C 120.348 46.722,120.262 46.681,119.851 46.729 L 119.333 46.790 119.312 45.770 C 119.301 45.209,119.295 44.544,119.301 44.292 C 119.306 44.040,119.243 43.833,119.160 43.833 C 119.078 43.833,119.058 43.710,119.116 43.559 C 119.201 43.336,119.139 43.300,118.782 43.368 C 118.541 43.414,118.383 43.388,118.432 43.309 C 118.480 43.231,118.440 43.167,118.343 43.167 C 118.239 43.167,118.167 42.762,118.167 42.174 L 118.167 41.182 117.583 41.072 C 117.009 40.965,117.000 40.950,116.986 40.106 C 116.959 38.410,116.789 37.870,116.239 37.732 C 115.871 37.640,115.833 37.546,115.833 36.714 C 115.833 35.933,115.793 35.813,115.560 35.903 C 115.326 35.992,115.318 35.969,115.507 35.741 C 115.692 35.519,115.689 35.450,115.489 35.323 C 115.153 35.111,114.876 35.131,114.777 35.375 C 114.731 35.490,114.678 35.208,114.659 34.750 C 114.640 34.292,114.616 33.692,114.604 33.417 C 114.585 32.961,114.535 32.919,114.042 32.947 L 113.500 32.977 113.500 31.833 C 113.500 30.450,113.310 29.891,112.753 29.638 C 112.434 29.492,112.333 29.321,112.333 28.923 C 112.333 28.635,112.243 28.310,112.133 28.200 C 111.978 28.044,111.982 28.000,112.154 28.000 C 112.333 28.000,112.332 27.948,112.145 27.718 C 111.994 27.531,111.986 27.478,112.123 27.560 C 112.263 27.644,112.298 27.601,112.230 27.425 C 112.116 27.127,111.833 27.076,111.833 27.354 C 111.833 27.489,111.768 27.487,111.600 27.347 C 111.420 27.198,111.346 27.203,111.279 27.368 C 111.232 27.486,111.187 27.346,111.180 27.055 C 111.160 26.273,111.008 26.000,110.590 26.000 C 110.310 26.000,110.176 25.863,110.060 25.459 C 109.939 25.040,109.793 24.899,109.411 24.832 C 108.999 24.761,108.920 24.671,108.935 24.294 C 108.946 24.046,108.889 23.882,108.810 23.931 C 108.731 23.980,108.667 23.940,108.667 23.843 C 108.667 23.647,97.640 23.582,97.444 23.778 M159.291 23.860 C 159.023 23.958,158.791 24.195,158.732 24.431 C 158.639 24.799,158.548 24.833,157.649 24.833 C 157.105 24.833,156.667 24.908,156.667 25.000 C 156.667 25.092,156.546 25.167,156.399 25.167 C 156.243 25.167,156.167 25.260,156.217 25.390 C 156.387 25.833,156.056 26.007,155.015 26.022 C 154.086 26.035,153.979 26.070,154.051 26.344 C 154.151 26.725,153.858 27.120,153.418 27.196 C 153.235 27.228,152.987 27.459,152.867 27.710 C 152.747 27.961,152.552 28.167,152.433 28.167 C 152.139 28.167,151.667 28.714,151.667 29.055 C 151.667 29.222,151.534 29.333,151.333 29.333 C 151.137 29.333,151.000 29.444,151.000 29.604 C 151.000 29.825,150.955 29.837,150.750 29.667 C 150.532 29.486,150.500 29.601,150.500 30.563 C 150.500 31.703,150.499 31.704,149.706 31.710 C 149.499 31.711,149.339 31.796,149.351 31.898 C 149.438 32.640,149.195 32.969,148.556 32.971 C 148.317 32.972,148.226 33.421,148.193 34.774 C 148.154 36.393,148.121 36.500,147.697 36.389 C 147.019 36.212,147.003 36.433,147.044 45.098 L 147.083 53.417 147.619 53.468 L 148.155 53.520 148.203 55.218 L 148.250 56.917 148.792 56.969 C 149.258 57.014,149.333 57.084,149.333 57.477 C 149.333 57.728,149.423 58.023,149.533 58.133 C 149.689 58.289,149.689 58.333,149.533 58.333 C 149.232 58.333,149.293 58.949,149.607 59.069 C 149.837 59.158,149.847 59.134,149.666 58.916 C 149.549 58.775,149.488 58.623,149.532 58.580 C 149.575 58.536,149.711 58.688,149.833 58.917 C 149.956 59.146,150.156 59.333,150.278 59.333 C 150.421 59.333,150.500 59.544,150.500 59.927 C 150.500 60.393,150.563 60.515,150.792 60.491 C 151.556 60.414,151.667 60.490,151.667 61.093 C 151.667 61.654,151.693 61.683,152.149 61.611 C 152.603 61.539,152.961 62.088,152.858 62.700 C 152.848 62.764,153.006 62.810,153.211 62.802 C 153.859 62.775,153.992 62.827,153.899 63.070 C 153.736 63.494,154.126 63.975,154.590 63.924 C 154.929 63.887,155.064 63.984,155.245 64.397 C 155.443 64.849,155.475 64.868,155.486 64.542 C 155.503 64.080,155.687 64.061,155.957 64.494 C 156.128 64.767,156.121 64.805,155.914 64.726 C 155.778 64.674,155.667 64.702,155.667 64.788 C 155.667 64.874,155.760 64.955,155.875 64.968 C 156.978 65.091,157.408 65.277,157.500 65.668 C 157.563 65.938,157.733 66.103,157.984 66.139 C 158.227 66.174,158.329 66.128,158.260 66.016 C 158.192 65.906,158.249 65.875,158.408 65.936 C 158.550 65.991,158.667 66.097,158.667 66.172 C 158.667 66.247,164.329 66.317,171.250 66.327 L 183.833 66.345 183.831 61.881 C 183.828 57.475,183.772 56.943,183.316 57.007 C 183.188 57.025,179.136 57.031,174.311 57.020 L 165.539 57.000 165.418 56.625 C 165.352 56.419,165.308 56.185,165.322 56.105 C 165.336 56.025,165.231 56.003,165.090 56.058 C 164.949 56.112,164.833 56.080,164.833 55.987 C 164.833 55.889,164.470 55.839,163.958 55.868 C 163.135 55.914,163.086 55.895,163.135 55.542 C 163.164 55.335,163.103 55.167,163.001 55.167 C 162.898 55.167,162.868 55.073,162.934 54.958 C 162.999 54.844,162.999 54.799,162.932 54.859 C 162.692 55.073,161.917 54.514,161.917 54.127 C 161.917 53.823,161.811 53.740,161.375 53.698 C 160.792 53.642,160.831 53.753,160.770 52.000 C 160.752 51.469,160.702 51.412,160.208 51.364 C 159.712 51.317,159.667 51.264,159.667 50.739 L 159.667 50.167 170.792 50.148 C 176.910 50.138,182.094 50.145,182.310 50.163 C 182.589 50.186,182.666 50.134,182.575 49.986 C 182.484 49.839,182.527 49.808,182.720 49.882 C 182.896 49.950,183.057 49.872,183.167 49.667 C 183.261 49.490,183.442 49.385,183.568 49.434 C 183.957 49.583,183.950 41.593,183.561 41.204 C 183.296 40.938,182.378 40.913,171.470 40.871 L 159.667 40.825 159.667 40.162 C 159.667 39.606,159.721 39.500,160.009 39.500 C 160.406 39.500,160.833 38.637,160.833 37.835 C 160.833 37.452,160.932 37.288,161.227 37.175 C 161.656 37.012,161.915 36.397,161.607 36.271 C 161.502 36.228,161.543 36.187,161.698 36.180 C 161.890 36.171,161.995 35.995,162.031 35.625 C 162.060 35.327,162.177 35.074,162.292 35.063 C 162.406 35.051,162.643 35.032,162.818 35.021 C 163.031 35.007,163.113 34.904,163.066 34.708 C 162.931 34.146,163.236 33.986,164.473 33.966 C 165.212 33.955,165.668 33.878,165.669 33.765 C 165.671 33.665,165.740 33.691,165.823 33.823 C 165.948 34.020,166.020 34.024,166.235 33.845 C 166.379 33.726,166.459 33.569,166.414 33.496 C 166.012 32.845,166.173 32.833,175.184 32.833 L 183.833 32.833 183.833 28.250 L 183.833 23.667 171.792 23.680 C 164.173 23.688,159.582 23.755,159.291 23.860 M243.836 40.620 C 243.842 58.409,243.822 57.907,244.543 58.088 C 244.954 58.191,245.002 58.281,245.025 58.976 C 245.038 59.402,245.057 59.898,245.066 60.079 C 245.079 60.317,245.216 60.418,245.561 60.445 C 246.176 60.494,246.250 60.639,246.322 61.954 C 246.328 62.067,246.533 62.290,246.778 62.450 C 247.170 62.707,247.392 62.761,248.292 62.820 C 248.406 62.827,248.501 63.002,248.503 63.208 C 248.506 63.665,248.744 64.074,248.940 63.958 C 249.251 63.773,249.818 64.147,249.752 64.492 C 249.691 64.805,249.903 64.928,250.375 64.853 C 250.444 64.842,250.500 64.908,250.500 65.000 C 250.500 65.092,250.931 65.168,251.458 65.169 C 252.050 65.171,252.331 65.226,252.193 65.314 C 252.022 65.422,252.086 65.539,252.462 65.806 C 252.733 65.999,253.002 66.109,253.060 66.051 C 253.119 65.992,253.167 66.026,253.167 66.125 C 253.167 66.252,256.339 66.297,264.042 66.277 L 274.917 66.250 274.939 61.792 C 274.953 59.088,274.900 57.333,274.804 57.333 C 274.718 57.333,274.693 57.260,274.748 57.169 C 274.814 57.063,272.040 57.019,266.789 57.044 L 258.729 57.083 258.801 56.708 C 258.842 56.491,258.790 56.333,258.676 56.333 C 258.568 56.333,258.526 56.259,258.582 56.169 C 258.643 56.071,258.568 56.048,258.398 56.114 C 258.189 56.194,258.149 56.164,258.247 56.004 C 258.350 55.838,258.278 55.805,257.950 55.868 C 257.695 55.917,257.530 55.878,257.550 55.775 C 257.568 55.678,257.496 55.595,257.389 55.591 C 257.282 55.587,257.132 55.515,257.056 55.432 C 256.976 55.344,257.000 55.328,257.113 55.393 C 257.222 55.455,257.357 55.429,257.415 55.336 C 257.508 55.186,257.160 55.085,256.779 55.151 C 256.704 55.164,256.689 55.098,256.747 55.004 C 256.806 54.910,256.778 54.833,256.687 54.833 C 256.596 54.833,256.498 54.590,256.469 54.292 C 256.423 53.815,256.351 53.744,255.875 53.698 L 255.333 53.646 255.333 39.931 C 255.333 25.284,255.335 25.316,254.510 25.028 C 254.220 24.927,254.004 24.705,253.937 24.437 C 253.773 23.786,253.204 23.709,248.290 23.682 L 243.831 23.657 243.836 40.620 M282.066 23.862 C 281.987 23.990,282.034 24.023,282.204 23.957 C 282.402 23.881,282.441 23.941,282.369 24.217 C 282.317 24.414,282.244 24.483,282.207 24.371 C 282.102 24.056,281.812 24.129,281.868 24.457 C 281.904 24.672,281.766 24.774,281.333 24.852 C 281.012 24.909,280.862 24.968,281.000 24.983 C 281.207 25.006,281.200 25.048,280.962 25.230 C 280.690 25.436,280.675 26.676,280.712 45.849 L 280.750 66.250 285.292 66.276 L 289.833 66.303 289.833 65.735 C 289.833 65.160,289.893 65.119,290.708 65.122 C 290.985 65.123,291.000 64.026,291.000 44.395 L 291.000 23.667 287.014 23.667 C 283.981 23.667,283.008 23.716,282.944 23.875 C 282.876 24.042,282.857 24.042,282.846 23.875 C 282.830 23.612,282.227 23.601,282.066 23.862 M314.228 23.913 C 314.182 24.034,314.168 24.271,314.197 24.441 C 314.238 24.681,314.130 24.762,313.714 24.802 C 313.250 24.847,313.164 24.930,313.070 25.427 C 312.975 25.937,312.905 26.000,312.434 26.000 C 311.960 26.000,311.900 26.055,311.864 26.523 C 311.810 27.231,311.748 27.299,311.212 27.225 C 310.874 27.179,310.831 27.198,311.052 27.295 C 311.340 27.422,311.337 27.450,311.010 27.865 C 310.777 28.162,310.662 28.562,310.654 29.110 C 310.646 29.553,310.603 29.823,310.556 29.708 C 310.450 29.445,309.892 29.436,309.732 29.695 C 309.652 29.825,309.702 29.855,309.884 29.786 C 310.034 29.728,310.197 29.748,310.247 29.829 C 310.297 29.910,310.168 30.000,309.961 30.030 C 309.720 30.064,309.577 30.204,309.566 30.417 C 309.557 30.600,309.538 30.989,309.525 31.280 C 309.507 31.651,309.400 31.843,309.166 31.917 C 308.578 32.103,308.393 32.699,308.348 34.542 C 308.334 35.118,308.296 35.167,307.845 35.167 C 307.288 35.167,307.208 35.337,307.180 36.575 C 307.161 37.431,306.952 37.722,306.467 37.571 C 306.151 37.473,305.927 38.246,306.054 39.000 C 306.158 39.616,305.915 39.969,305.450 39.881 C 305.200 39.833,305.048 39.886,305.036 40.028 C 305.026 40.150,304.980 40.700,304.936 41.250 C 304.859 42.198,304.834 42.247,304.444 42.198 C 304.217 42.170,303.975 42.239,303.905 42.352 C 303.815 42.498,303.870 42.525,304.098 42.445 C 304.375 42.347,304.383 42.360,304.157 42.541 C 304.008 42.662,303.881 43.064,303.857 43.494 C 303.834 43.903,303.735 44.334,303.637 44.452 C 303.539 44.570,303.517 44.667,303.589 44.667 C 303.660 44.667,303.583 44.817,303.417 45.000 C 303.251 45.183,303.033 45.332,302.933 45.331 C 302.831 45.329,302.848 45.266,302.973 45.187 C 303.095 45.110,303.207 44.979,303.223 44.898 C 303.238 44.817,303.325 44.774,303.417 44.804 C 303.508 44.833,303.485 44.758,303.364 44.637 C 303.010 44.282,302.667 44.919,302.667 45.930 C 302.667 46.712,302.626 46.807,302.257 46.900 C 301.759 47.025,301.502 47.809,301.501 49.208 C 301.500 50.193,301.468 50.234,300.727 50.176 C 300.396 50.150,300.369 50.230,300.353 51.267 C 300.334 52.547,300.355 52.503,299.737 52.569 C 299.291 52.616,299.268 52.662,299.220 53.601 C 299.157 54.815,299.068 55.062,298.740 54.936 C 298.593 54.879,298.526 54.908,298.585 55.002 C 298.641 55.093,298.565 55.167,298.417 55.167 C 298.255 55.167,298.195 55.089,298.266 54.974 C 298.341 54.852,298.311 54.827,298.184 54.906 C 298.074 54.974,297.996 55.154,298.011 55.306 C 298.026 55.459,298.030 55.975,298.019 56.454 L 298.000 57.325 297.500 57.225 C 297.173 57.160,297.000 57.192,297.000 57.320 C 297.000 57.427,297.094 57.493,297.208 57.467 C 297.323 57.440,297.424 57.493,297.433 57.584 C 297.442 57.676,297.310 57.727,297.141 57.698 C 296.951 57.666,296.833 57.745,296.833 57.906 C 296.833 58.049,296.923 58.167,297.033 58.167 C 297.189 58.167,297.189 58.211,297.033 58.367 C 296.923 58.477,296.833 58.861,296.833 59.220 C 296.833 59.792,296.801 59.847,296.575 59.660 C 296.362 59.483,296.269 59.493,296.040 59.721 C 295.624 60.138,296.026 60.501,296.546 60.177 C 296.885 59.966,296.897 59.970,296.688 60.223 C 296.562 60.375,296.278 60.500,296.056 60.500 C 295.829 60.500,295.664 60.592,295.679 60.708 C 295.853 62.048,295.661 62.797,295.117 62.899 L 294.567 63.003 294.523 64.563 C 294.485 65.914,294.518 66.138,294.768 66.234 C 295.197 66.398,306.167 66.332,306.167 66.165 C 306.167 66.087,306.349 66.055,306.573 66.096 C 306.796 66.136,307.025 66.094,307.083 66.001 C 307.140 65.909,307.088 65.832,306.968 65.831 C 306.835 65.829,306.815 65.781,306.917 65.706 C 307.008 65.638,307.083 65.471,307.083 65.333 C 307.083 65.182,307.248 65.077,307.500 65.067 C 308.280 65.036,308.422 64.999,308.244 64.872 C 307.965 64.675,308.358 63.710,308.697 63.759 C 308.877 63.786,308.945 63.717,308.887 63.567 C 308.828 63.412,308.916 63.333,309.149 63.333 C 309.453 63.333,309.500 63.235,309.500 62.597 C 309.500 61.749,309.636 61.295,309.851 61.427 C 309.933 61.478,310.000 61.412,310.000 61.280 C 310.000 61.149,310.127 60.938,310.282 60.812 C 310.474 60.657,310.524 60.650,310.439 60.792 C 310.368 60.909,310.396 61.000,310.502 61.000 C 310.606 61.000,310.677 60.831,310.660 60.625 C 310.584 59.686,310.674 59.167,310.913 59.167 C 311.278 59.167,311.706 58.412,311.742 57.704 L 311.773 57.083 319.303 57.040 L 326.833 56.997 326.833 57.415 C 326.833 57.645,326.913 57.833,327.010 57.833 C 327.107 57.833,327.139 57.910,327.081 58.004 C 327.023 58.098,327.037 58.164,327.113 58.151 C 327.898 58.015,328.000 58.140,328.000 59.239 C 328.000 60.551,328.197 61.112,328.747 61.362 C 329.123 61.534,329.167 61.651,329.167 62.493 C 329.167 63.010,329.257 63.523,329.367 63.633 C 329.592 63.858,330.067 63.909,329.934 63.694 C 329.887 63.618,329.957 63.556,330.091 63.556 C 330.251 63.556,330.333 63.732,330.333 64.078 C 330.333 64.651,330.591 65.007,330.992 64.987 C 331.165 64.978,331.181 64.946,331.041 64.889 C 330.925 64.843,330.876 64.732,330.932 64.642 C 331.071 64.416,331.488 65.005,331.495 65.438 C 331.507 66.232,331.649 66.250,338.067 66.250 L 344.083 66.250 344.095 64.833 C 344.101 64.054,344.026 63.309,343.928 63.176 C 343.795 62.997,343.802 62.967,343.953 63.058 C 344.101 63.147,344.094 63.031,343.926 62.633 C 343.800 62.332,343.558 62.010,343.390 61.918 C 343.221 61.826,343.052 61.731,343.013 61.708 C 342.975 61.685,342.920 61.385,342.892 61.041 C 342.803 59.977,342.792 59.922,342.624 59.708 C 342.533 59.594,342.384 59.500,342.293 59.500 C 342.201 59.500,342.225 59.620,342.347 59.766 C 342.562 60.025,342.774 60.829,342.575 60.630 C 342.520 60.575,342.460 60.430,342.441 60.307 C 342.390 59.967,342.158 59.652,342.022 59.737 C 341.955 59.778,341.882 59.539,341.859 59.206 C 341.837 58.872,341.728 58.488,341.618 58.351 C 341.459 58.155,341.461 58.129,341.625 58.228 C 341.740 58.297,341.833 58.278,341.833 58.186 C 341.833 58.095,341.765 57.978,341.682 57.926 C 341.599 57.875,341.573 57.675,341.623 57.481 C 341.703 57.177,341.663 57.145,341.337 57.249 C 341.078 57.331,340.994 57.310,341.072 57.185 C 341.137 57.080,341.074 57.000,340.927 57.000 C 340.680 57.000,340.567 56.353,340.658 55.458 C 340.674 55.298,340.603 55.167,340.501 55.167 C 340.398 55.167,340.361 55.090,340.419 54.996 C 340.477 54.902,340.463 54.842,340.387 54.862 C 339.964 54.977,339.499 54.614,339.479 54.155 C 339.425 52.875,339.255 52.500,338.732 52.500 C 338.359 52.500,338.333 52.438,338.321 51.542 C 338.299 49.929,338.118 49.369,337.572 49.232 C 337.205 49.140,337.167 49.045,337.167 48.232 C 337.167 47.738,337.094 47.333,337.005 47.333 C 336.916 47.333,336.892 47.209,336.950 47.056 C 337.019 46.878,336.991 46.819,336.873 46.892 C 336.772 46.954,336.643 46.929,336.585 46.836 C 336.527 46.743,336.391 46.668,336.282 46.669 C 336.149 46.671,336.158 46.719,336.309 46.815 C 336.455 46.907,336.474 46.996,336.363 47.065 C 336.140 47.203,336.020 46.796,335.963 45.708 C 335.937 45.227,335.856 44.833,335.782 44.833 C 335.708 44.833,335.694 44.757,335.751 44.665 C 335.809 44.571,335.628 44.451,335.344 44.394 C 334.820 44.289,334.717 43.929,334.824 42.562 C 334.846 42.279,334.731 42.185,334.259 42.096 L 333.667 41.985 333.647 41.034 C 333.636 40.511,333.636 40.027,333.647 39.958 C 333.658 39.890,333.404 39.833,333.083 39.833 L 332.500 39.833 332.497 38.458 C 332.495 37.173,332.359 36.603,332.048 36.569 C 331.456 36.504,331.333 36.276,331.333 35.243 C 331.333 34.151,330.870 33.578,330.482 34.190 C 330.336 34.420,330.264 33.764,330.328 32.792 C 330.345 32.533,330.273 32.333,330.161 32.333 C 330.052 32.333,330.008 32.219,330.064 32.075 C 330.121 31.926,330.093 31.859,329.998 31.918 C 329.907 31.974,329.833 31.931,329.833 31.824 C 329.833 31.710,329.694 31.664,329.500 31.715 C 329.151 31.806,329.109 31.636,329.125 30.227 C 329.131 29.678,328.555 29.177,328.183 29.407 C 328.065 29.479,327.995 29.323,327.987 28.968 C 327.943 27.074,327.650 26.167,327.079 26.167 C 326.924 26.167,326.833 26.003,326.833 25.721 C 326.833 25.477,326.702 25.122,326.542 24.933 C 326.263 24.605,326.263 24.599,326.545 24.818 C 326.858 25.060,326.811 24.673,326.476 24.235 C 326.399 24.135,326.392 23.991,326.460 23.916 C 326.528 23.841,326.495 23.831,326.387 23.893 C 326.278 23.955,326.143 23.930,326.086 23.837 C 325.915 23.562,314.335 23.636,314.228 23.913 M217.404 30.924 C 217.462 31.158,217.466 31.420,217.412 31.508 C 217.353 31.603,217.782 31.667,218.479 31.667 C 219.627 31.667,219.645 31.674,219.697 32.125 C 219.738 32.477,219.874 32.620,220.284 32.741 C 220.714 32.867,220.827 32.996,220.867 33.407 C 220.908 33.826,220.991 33.917,221.332 33.917 C 221.698 33.917,221.777 34.031,221.999 34.883 C 222.186 35.601,222.355 35.900,222.659 36.050 C 223.026 36.232,223.063 36.342,223.022 37.126 C 222.981 37.887,223.011 37.985,223.257 37.891 C 223.499 37.798,223.512 37.833,223.349 38.138 C 223.186 38.443,223.198 38.477,223.440 38.385 C 223.637 38.309,223.683 38.339,223.594 38.483 C 223.507 38.623,223.565 38.672,223.775 38.636 C 224.278 38.550,224.340 49.082,223.838 49.214 C 223.398 49.329,223.138 50.021,223.073 51.250 C 223.043 51.800,223.015 52.326,223.010 52.419 C 223.004 52.512,222.833 52.662,222.629 52.752 C 222.378 52.863,222.182 53.186,222.025 53.747 C 221.788 54.591,221.424 55.024,221.065 54.887 C 220.956 54.845,220.871 54.909,220.876 55.030 C 220.903 55.632,220.817 56.010,220.674 55.921 C 220.587 55.867,220.317 55.873,220.075 55.934 C 219.751 56.015,219.694 56.081,219.859 56.186 C 220.026 56.292,220.030 56.329,219.875 56.331 C 219.760 56.332,219.667 56.483,219.667 56.667 C 219.667 56.963,219.556 57.000,218.667 57.000 C 218.074 57.000,217.667 57.072,217.667 57.177 C 217.667 57.274,217.585 57.303,217.486 57.241 C 217.367 57.168,217.324 57.294,217.361 57.604 C 217.435 58.233,217.237 58.262,213.307 58.201 C 210.712 58.161,210.167 58.111,210.167 57.914 C 210.167 57.782,209.969 57.545,209.726 57.386 C 209.334 57.128,208.943 57.069,207.292 57.015 C 206.933 57.003,206.833 56.919,206.831 56.625 C 206.827 56.058,206.580 55.773,206.184 55.877 C 205.856 55.963,205.734 55.767,205.817 55.283 C 205.857 55.043,205.366 54.667,205.012 54.667 C 204.822 54.667,204.659 54.610,204.649 54.542 C 204.639 54.473,204.618 54.184,204.601 53.899 C 204.585 53.614,204.439 53.249,204.278 53.087 C 204.116 52.926,204.029 52.749,204.084 52.693 C 204.140 52.638,204.261 52.703,204.355 52.838 C 204.504 53.052,204.517 53.052,204.457 52.833 C 204.420 52.696,204.224 52.575,204.023 52.564 C 203.517 52.538,203.516 52.536,203.463 51.283 C 203.438 50.669,203.363 50.167,203.297 50.167 C 203.231 50.167,203.220 50.054,203.273 49.917 C 203.332 49.762,203.272 49.667,203.117 49.667 C 202.947 49.667,202.893 49.558,202.952 49.333 C 203.019 49.078,202.957 49.000,202.686 49.000 C 202.335 49.000,202.333 48.974,202.333 44.351 L 202.333 39.703 202.732 39.603 C 203.191 39.488,203.463 39.000,203.068 39.000 C 202.928 39.000,202.855 39.067,202.906 39.149 C 202.957 39.231,202.880 39.344,202.735 39.399 C 202.316 39.560,202.555 39.111,203.013 38.877 C 203.374 38.693,203.381 38.671,203.083 38.663 C 202.754 38.655,202.754 38.653,203.091 38.452 C 203.278 38.341,203.435 38.100,203.440 37.917 C 203.487 36.179,203.492 36.162,203.917 36.000 C 204.146 35.913,204.339 35.746,204.346 35.629 C 204.411 34.509,204.746 33.870,205.238 33.924 C 205.682 33.972,206.002 33.408,205.756 33.009 C 205.652 32.842,205.946 32.767,206.506 32.819 C 206.681 32.835,206.775 32.672,206.803 32.305 C 206.854 31.634,206.732 31.701,208.000 31.653 C 209.416 31.600,209.977 31.399,210.102 30.900 L 210.203 30.500 213.750 30.500 L 217.297 30.500 217.404 30.924 M332.000 36.917 C 332.215 37.146,332.345 37.333,332.288 37.333 C 332.231 37.333,331.982 37.146,331.734 36.917 C 331.487 36.688,331.358 36.500,331.447 36.500 C 331.536 36.500,331.785 36.688,332.000 36.917 M319.856 37.792 C 319.869 37.952,319.873 38.402,319.865 38.792 C 319.857 39.181,319.926 39.500,320.018 39.500 C 320.111 39.500,320.138 39.578,320.079 39.674 C 319.933 39.910,320.447 40.667,320.754 40.667 C 321.014 40.667,321.054 40.804,321.005 41.542 C 320.988 41.794,321.053 42.000,321.149 42.000 C 321.245 42.000,321.280 42.112,321.227 42.250 C 321.174 42.387,321.206 42.500,321.298 42.500 C 321.389 42.500,321.512 42.623,321.569 42.774 C 321.657 43.002,321.633 43.013,321.420 42.836 C 321.247 42.692,321.167 42.685,321.167 42.813 C 321.167 42.916,321.223 43.006,321.292 43.013 C 322.173 43.103,322.212 43.153,322.208 44.203 C 322.205 45.205,322.371 45.500,322.937 45.500 C 323.341 45.500,323.448 45.982,323.337 47.310 C 323.314 47.586,323.367 47.666,323.511 47.576 C 323.645 47.494,323.676 47.517,323.599 47.641 C 323.514 47.778,322.258 47.833,319.198 47.831 C 316.843 47.829,315.001 47.773,315.104 47.706 C 315.215 47.634,315.284 47.153,315.271 46.542 C 315.250 45.488,315.303 45.405,315.946 45.485 C 316.218 45.518,316.405 45.173,316.432 44.583 C 316.444 44.308,316.465 43.877,316.477 43.625 C 316.494 43.296,316.588 43.167,316.813 43.167 C 317.253 43.167,317.592 42.728,317.363 42.453 C 317.251 42.317,317.242 42.149,317.340 41.994 C 317.425 41.860,317.496 41.506,317.497 41.208 C 317.499 40.790,317.572 40.667,317.813 40.667 C 318.345 40.667,318.553 40.200,318.633 38.824 L 318.709 37.500 319.271 37.500 C 319.687 37.500,319.839 37.576,319.856 37.792 M183.273 49.751 C 183.215 49.902,183.273 50.000,183.422 50.000 C 183.691 50.000,183.753 49.740,183.517 49.594 C 183.435 49.543,183.325 49.614,183.273 49.751 M129.106 62.418 C 129.048 62.569,129.107 62.667,129.255 62.667 C 129.525 62.667,129.586 62.406,129.351 62.261 C 129.269 62.210,129.159 62.281,129.106 62.418 M252.000 65.837 C 252.000 65.932,252.116 66.055,252.257 66.109 C 252.648 66.259,252.694 66.097,252.326 65.867 C 252.120 65.739,252.000 65.727,252.000 65.837 " stroke="none" fill="#e4041c" fill-rule="evenodd"></path><path id="path2" d="M304.912 94.417 C 304.912 99.917,304.933 102.143,304.958 99.363 C 304.984 96.584,304.984 92.084,304.958 89.363 C 304.933 86.643,304.912 88.917,304.912 94.417 M387.911 96.250 C 387.911 100.742,387.932 102.555,387.958 100.280 C 387.984 98.005,387.984 94.330,387.958 92.113 C 387.932 89.897,387.910 91.758,387.911 96.250 M223.042 91.750 C 223.044 92.117,223.078 92.247,223.118 92.040 C 223.158 91.832,223.156 91.532,223.115 91.373 C 223.073 91.214,223.040 91.383,223.042 91.750 M223.045 97.333 C 223.045 97.746,223.078 97.915,223.118 97.708 C 223.157 97.502,223.157 97.165,223.118 96.958 C 223.078 96.752,223.045 96.921,223.045 97.333 " stroke="none" fill="#806840" fill-rule="evenodd"></path><path id="path3" d="" stroke="none" fill="#c43840" fill-rule="evenodd"></path><path id="path4" d="M18.846 5.726 C 18.837 5.950,18.753 6.005,18.542 5.925 C 18.308 5.836,18.291 5.855,18.458 6.023 C 18.712 6.279,19.087 5.986,18.949 5.640 C 18.891 5.496,18.855 5.527,18.846 5.726 M53.944 10.111 C 53.751 10.304,53.823 10.483,54.167 10.667 C 54.393 10.788,54.500 10.790,54.500 10.673 C 54.500 10.578,54.379 10.500,54.232 10.500 C 54.063 10.500,54.000 10.408,54.060 10.250 C 54.163 9.982,54.123 9.933,53.944 10.111 M70.875 33.083 C 70.877 33.450,70.911 33.580,70.951 33.373 C 70.991 33.166,70.990 32.866,70.948 32.706 C 70.906 32.547,70.874 32.717,70.875 33.083 M331.717 36.893 C 331.974 37.135,332.227 37.333,332.279 37.333 C 332.453 37.333,331.950 36.818,331.597 36.634 C 331.348 36.505,331.382 36.578,331.717 36.893 M70.875 39.583 C 70.877 39.950,70.911 40.080,70.951 39.873 C 70.991 39.666,70.990 39.366,70.948 39.206 C 70.906 39.047,70.874 39.217,70.875 39.583 M122.024 48.148 C 121.887 48.235,121.863 48.332,121.963 48.394 C 122.054 48.450,122.222 48.385,122.335 48.248 C 122.560 47.977,122.383 47.921,122.024 48.148 M310.200 60.867 C 309.965 61.102,309.939 61.333,310.147 61.333 C 310.228 61.333,310.334 61.183,310.382 61.000 C 310.483 60.611,310.467 60.599,310.200 60.867 M50.762 63.429 C 50.437 63.754,50.429 63.850,50.737 63.732 C 50.868 63.682,51.015 63.534,51.065 63.404 C 51.183 63.096,51.087 63.104,50.762 63.429 M155.500 64.327 C 155.500 64.416,155.653 64.570,155.841 64.671 C 156.156 64.839,156.166 64.827,155.968 64.510 C 155.742 64.149,155.500 64.055,155.500 64.327 M115.095 65.387 C 115.138 65.499,115.323 65.684,115.507 65.799 C 115.815 65.992,115.825 65.982,115.632 65.674 C 115.398 65.299,114.974 65.073,115.095 65.387 " stroke="none" fill="#c40444" fill-rule="evenodd"></path></g></svg>